<svg width="401" height="201" viewBox="0 0 401 201" fill="none" xmlns="http://www.w3.org/2000/svg">
<rect width="400" height="200" fill="#2563EB"/>
<g clip-path="url(#clip0_1_169)">
<path opacity="0.1" d="M268.255 199.915C277.855 199.938 285.639 198.874 285.642 197.54C285.646 196.206 277.866 195.106 268.266 195.084C258.667 195.061 250.882 196.125 250.879 197.459C250.876 198.794 258.655 199.893 268.255 199.915Z" fill="#2563EB"/>
<path opacity="0.1" d="M362.74 200.202C374.719 200.23 384.432 199.171 384.435 197.837C384.438 196.502 374.73 195.398 362.751 195.371C350.772 195.343 341.059 196.402 341.056 197.736C341.053 199.07 350.761 200.175 362.74 200.202Z" fill="#2563EB"/>
<path opacity="0.1" d="M205.348 131.214L223.452 131.256L223.403 152.61L206.624 152.571C206.579 152.79 206.535 153.01 206.488 153.231L223.401 153.27L223.361 170.492C223.331 170.484 223.304 170.475 223.276 170.465C222.798 170.301 222.324 170.127 221.85 169.94L221.547 169.821C221.072 169.625 220.596 169.418 220.121 169.2C219.955 169.124 219.79 169.045 219.626 168.964C216.988 167.678 214.593 166.05 212.523 164.137C212.462 164.086 212.405 164.032 212.345 163.983C212.057 163.71 211.774 163.435 211.5 163.153L211.197 162.844C210.873 162.499 210.56 162.145 210.256 161.786C210.211 161.733 210.169 161.681 210.122 161.631C208.885 160.14 207.859 158.526 207.065 156.823C207.04 156.772 207.019 156.716 206.996 156.669C206.752 156.123 206.537 155.571 206.349 155.015C206.267 154.782 206.189 154.552 206.122 154.309C206.097 154.238 206.076 154.169 206.057 154.099C205.051 150.674 204.94 147.119 204.948 143.589C204.949 143.176 204.95 142.763 204.951 142.354C204.954 140.926 204.977 139.489 205.009 138.053C205.01 137.681 205.029 137.311 205.038 136.937C205.066 135.989 205.104 135.041 205.152 134.094C205.163 133.83 205.178 133.567 205.195 133.305C205.195 133.154 205.205 133.002 205.223 132.851C205.267 132.302 205.304 131.757 205.348 131.214Z" fill="#2563EB"/>
<path opacity="0.1" d="M223.507 107.48L213.577 107.457C215.196 105.274 216.965 103.177 218.873 101.177C220.352 99.6117 221.913 98.087 223.532 96.6181L223.507 107.48Z" fill="#2563EB"/>
<path opacity="0.1" d="M223.506 108.14L223.454 130.595L205.406 130.553C205.407 130.488 205.419 130.422 205.425 130.357C205.441 130.18 205.458 130.002 205.476 129.826C205.496 129.619 205.518 129.411 205.542 129.209C205.565 129.007 205.591 128.76 205.618 128.536C205.645 128.312 205.671 128.085 205.702 127.862C205.733 127.638 205.76 127.414 205.792 127.192C205.825 126.97 205.854 126.744 205.889 126.522C205.916 126.337 205.945 126.153 205.974 125.968C206.015 125.707 206.059 125.445 206.106 125.186C206.106 125.147 206.118 125.107 206.126 125.07C206.456 123.172 206.904 121.291 207.468 119.435C208.058 117.489 208.811 115.581 209.72 113.729C210.686 111.791 211.816 109.918 213.1 108.124L223.506 108.14Z" fill="#2563EB"/>
<path opacity="0.1" d="M227.774 131.264L227.725 152.62L266.393 152.709L266.443 131.354L227.774 131.264ZM227.723 153.279L227.681 171.618C227.902 171.659 228.121 171.698 228.339 171.731C228.635 171.781 228.929 171.826 229.23 171.865C229.288 171.873 229.346 171.881 229.409 171.886C229.526 171.903 229.648 171.917 229.765 171.931C230.063 171.968 230.359 171.998 230.657 172.022C230.798 172.034 230.941 172.045 231.083 172.055L231.428 172.079C231.615 172.092 231.8 172.101 231.984 172.106C232.098 172.107 232.212 172.116 232.33 172.12C232.419 172.12 232.509 172.12 232.601 172.12C232.694 172.12 232.826 172.121 232.939 172.121C233.092 172.121 233.245 172.122 233.397 172.122L233.602 172.123C233.756 172.123 233.909 172.123 234.061 172.111L234.071 172.111C234.177 172.112 234.284 172.112 234.391 172.1C234.42 172.101 234.45 172.101 234.48 172.1C234.569 172.1 234.658 172.1 234.744 172.09L234.806 172.09L235.404 172.051C235.6 172.036 235.798 172.016 235.998 171.998L236.405 171.958C238.06 171.761 239.697 171.463 241.304 171.068C244.913 170.205 248.444 168.995 252.051 168.112C256.715 166.972 261.866 166.419 266.367 167.836L266.401 153.368L227.723 153.279ZM266.498 107.579L266.564 79.1488C262.33 79.0993 258.107 79.5181 253.997 80.3948C244.201 82.5009 235.405 87.0978 227.863 92.9772L227.829 107.488L229.77 107.493L229.769 108.152L227.828 108.147L227.776 130.605L266.444 130.695L266.496 108.238L237.737 108.172L237.739 107.513L266.498 107.579ZM316.188 98.0909C313.765 98.0112 311.359 97.3418 309.183 96.3118C305.022 94.3416 301.703 91.3067 297.991 88.7433C290.279 83.4042 280.707 80.1711 270.882 79.3518L270.817 107.589L326.018 107.717L326.155 107.592L316.188 98.0909ZM321.218 97.3307L326.538 102.406L326.553 96.0155C324.767 96.2028 323.202 96.6545 321.225 97.3245L321.218 97.3307ZM326.367 176.401L326.42 153.507L315.059 153.481C315.029 153.384 314.998 153.285 314.963 153.186C314.997 153.285 315.025 153.384 315.057 153.481L270.718 153.378L270.679 169.935C271.1 170.206 271.515 170.491 271.926 170.78C272.369 171.09 272.808 171.417 273.247 171.737L273.691 172.056C273.903 172.211 274.116 172.366 274.332 172.512C274.759 172.813 275.191 173.111 275.627 173.404C275.842 173.559 276.063 173.698 276.282 173.844C279.76 176.157 283.43 178.245 287.262 180.092C288.12 180.506 288.987 180.91 289.861 181.304C290.444 181.563 291.03 181.82 291.619 182.07C292.502 182.446 293.394 182.808 294.292 183.157C302.573 186.396 311.333 188.626 320.321 189.783C322.317 190.043 324.321 190.248 326.333 190.399L326.365 176.399L326.544 176.399L326.367 176.401ZM270.822 108.248L270.77 130.705L326.48 130.834L326.532 108.377L270.822 108.248ZM270.769 131.364L270.719 152.719L326.429 152.848L326.478 131.493L270.769 131.364ZM330.884 95.9977L330.868 103.127L337.688 96.6804C335.434 96.3602 333.166 96.1301 330.884 95.99L330.884 95.9977ZM330.802 131.511L330.753 152.858L384.937 152.984L384.986 131.628L330.802 131.511ZM384.68 178.231L384.928 153.643L330.751 153.518L330.665 190.654C334.155 190.789 337.65 190.761 341.137 190.571L341.197 190.571C342.862 190.484 344.52 190.356 346.17 190.187L346.207 190.187C355.009 189.321 363.618 187.354 371.765 184.348M395.426 135.169C395.224 134.753 395.013 134.341 394.798 133.933C394.396 133.16 393.972 132.409 393.535 131.657L389.307 131.648L389.257 152.994L399.946 153.019C399.955 146.974 398.201 140.795 395.432 135.161L395.426 135.169ZM389.256 153.661L389.207 174.809C392.224 172.319 394.774 169.467 396.614 166.205C398.826 162.277 399.844 158.02 399.936 153.682L389.256 153.661ZM389.321 125.423L389.308 130.981L393.14 130.99C391.985 129.074 390.712 127.213 389.327 125.416L389.321 125.423ZM352.632 100.238C352.351 100.144 352.069 100.05 351.786 99.9579C348.796 98.995 345.742 98.193 342.638 97.5563L332.201 107.423L332.001 107.606L332.134 107.733L369.199 107.819C364.044 104.732 358.485 102.184 352.638 100.23L352.632 100.238ZM370.284 108.487L331.616 108.397L330.854 108.997L330.804 130.844L337.465 130.859L337.475 130.859L384.995 130.969L385.02 120.387C380.731 115.878 375.779 111.875 370.289 108.479L370.284 108.487Z" fill="white"/>
<path opacity="0.1" d="M223.479 119.466L223.454 130.595L205.406 130.553C205.407 130.488 205.419 130.422 205.425 130.357C205.441 130.18 205.458 130.002 205.476 129.826C205.496 129.619 205.518 129.411 205.542 129.209C205.565 129.007 205.591 128.76 205.618 128.536C205.645 128.312 205.671 128.085 205.702 127.862C205.733 127.638 205.76 127.414 205.792 127.192C205.825 126.97 205.854 126.744 205.889 126.522C205.916 126.337 205.945 126.153 205.974 125.968C206.015 125.707 206.059 125.445 206.106 125.186C206.106 125.147 206.118 125.107 206.126 125.07C206.456 123.172 206.904 121.291 207.468 119.435L223.479 119.466Z" fill="#2563EB"/>
<path opacity="0.1" d="M205.348 131.214L223.452 131.256L223.403 152.61L206.624 152.571C206.579 152.79 206.535 153.01 206.488 153.231L223.401 153.27L223.361 170.492C223.331 170.484 223.304 170.475 223.276 170.465C222.798 170.301 222.324 170.127 221.85 169.94L221.547 169.821C221.072 169.625 220.596 169.418 220.121 169.2C219.955 169.124 219.79 169.045 219.626 168.964C216.988 167.678 214.593 166.05 212.523 164.137C212.462 164.086 212.405 164.032 212.345 163.983C212.057 163.71 211.774 163.435 211.5 163.153L211.197 162.844C210.873 162.499 210.56 162.145 210.256 161.786C210.211 161.733 210.169 161.681 210.122 161.631C208.885 160.14 207.859 158.526 207.065 156.823C207.04 156.772 207.019 156.716 206.996 156.669C206.752 156.123 206.537 155.571 206.349 155.015C206.267 154.782 206.189 154.552 206.122 154.309C206.097 154.238 206.076 154.169 206.057 154.099C205.051 150.674 204.94 147.119 204.948 143.589C204.949 143.176 204.95 142.763 204.951 142.354C204.954 140.926 204.977 139.489 205.009 138.053C205.01 137.681 205.029 137.311 205.038 136.937C205.066 135.989 205.104 135.041 205.152 134.094C205.163 133.83 205.178 133.567 205.195 133.305C205.195 133.154 205.205 133.002 205.223 132.851C205.267 132.302 205.304 131.757 205.348 131.214Z" fill="#2563EB"/>
<path opacity="0.1" d="M241.433 111.396L241.388 130.636L227.776 130.605L227.82 111.364L229.761 111.369L229.776 104.854L237.743 104.873L237.728 111.387L241.433 111.396Z" fill="#2563EB"/>
<path opacity="0.1" d="M241.387 131.296L227.776 131.264L227.727 152.618L241.337 152.65L241.387 131.296Z" fill="#2563EB"/>
<path opacity="0.1" d="M227.723 153.28L241.336 153.312L241.295 171.064C239.688 171.46 238.051 171.757 236.396 171.953L235.989 171.995C235.789 172.015 235.591 172.031 235.395 172.048C235.199 172.064 234.995 172.076 234.797 172.087L234.735 172.087C234.649 172.086 234.557 172.095 234.473 172.097L234.382 172.097C234.275 172.096 234.168 172.105 234.061 172.108C233.909 172.116 233.757 172.117 233.602 172.118C233.536 172.118 233.474 172.118 233.408 172.117C233.254 172.117 233.103 172.117 232.949 172.116L232.612 172.116C232.521 172.115 232.434 172.115 232.339 172.115L231.995 172.103C231.817 172.103 231.624 172.086 231.438 172.074L231.096 172.052L230.67 172.017C230.37 171.993 230.072 171.963 229.778 171.927L229.421 171.883L229.243 171.861C228.945 171.82 228.651 171.776 228.351 171.726C228.132 171.693 227.914 171.652 227.693 171.613L227.723 153.28Z" fill="#2563EB"/>
<path opacity="0.1" d="M326.529 109.321L315.306 109.295L315.256 130.806L326.48 130.832L326.529 109.321Z" fill="#2563EB"/>
<path opacity="0.1" d="M326.48 131.493L326.43 152.848L270.719 152.719L270.74 143.508L300.415 143.577L300.402 149.011L315.213 149.045L315.254 131.467L326.48 131.493Z" fill="#2563EB"/>
<path opacity="0.1" d="M326.552 176.406L326.374 176.405L326.342 190.414C324.332 190.262 322.329 190.058 320.331 189.8C311.339 188.639 302.576 186.405 294.292 183.16C291.9 182.222 289.557 181.199 287.263 180.09C283.432 178.243 279.762 176.154 276.282 173.842C275.408 173.26 274.546 172.664 273.694 172.055C273.105 171.632 272.519 171.198 271.926 170.777C271.515 170.488 271.1 170.203 270.679 169.93L270.718 153.38L315.055 153.483C315.025 153.384 314.995 153.285 314.963 153.188C314.997 153.285 315.029 153.384 315.059 153.483L326.427 153.509L326.374 176.396C326.435 176.398 326.494 176.402 326.552 176.406Z" fill="#2563EB"/>
<path opacity="0.1" d="M355.806 107.786L348.492 107.769L348.497 105.802L351.776 105.81L351.789 99.9518C352.073 100.042 352.356 100.135 352.638 100.23L352.625 105.812L355.811 105.819L355.806 107.786Z" fill="#2563EB"/>
<path opacity="0.1" d="M373.373 130.942L337.468 130.859C337.468 130.859 337.468 130.859 337.481 130.867L337.465 130.859L330.804 130.844L330.854 109.332L332.741 109.337L332.704 125.237L341.329 125.257L341.351 115.84L348.475 115.857L348.493 108.43L355.806 108.447L355.789 115.88L362.914 115.896L362.892 125.313L373.386 125.337L373.373 130.942Z" fill="#2563EB"/>
<path opacity="0.1" d="M330.802 131.503L330.753 152.858L373.322 152.957L373.372 131.601L330.802 131.503ZM384.82 178.121L384.918 161.218L373.303 161.191L373.321 153.627L330.751 153.528L330.665 190.654C334.155 190.789 337.65 190.761 341.137 190.57L341.197 190.571C342.862 190.484 344.52 190.356 346.17 190.187L346.207 190.187C355.009 189.321 363.618 187.354 371.765 184.348" fill="#2563EB"/>
<path opacity="0.1" d="M390.012 153.656L399.943 153.679C399.845 158.015 398.83 162.272 396.619 166.2C394.78 169.464 392.227 172.316 389.214 174.805L389.246 161.22L389.995 161.222L390.012 153.656Z" fill="#2563EB"/>
<path opacity="0.1" d="M399.95 153.019L390.014 152.996L390.055 135.149L395.432 135.161C398.201 140.795 399.955 146.974 399.95 153.019Z" fill="#2563EB"/>
<path opacity="0.1" d="M326.517 115.301L320.504 115.287L320.488 122.031L326.502 122.045L326.517 115.301Z" fill="#2563EB"/>
<path opacity="0.1" d="M326.485 129.281L320.472 129.267L320.468 130.82L326.481 130.834L326.485 129.281Z" fill="#2563EB"/>
<path opacity="0.1" d="M326.48 131.493L320.467 131.479L320.456 136.01L326.469 136.024L326.48 131.493Z" fill="#2563EB"/>
<path opacity="0.1" d="M326.453 143.26L320.439 143.246L320.424 149.991L326.437 150.005L326.453 143.26Z" fill="#2563EB"/>
<path opacity="0.1" d="M326.42 157.24L320.407 157.226L320.391 163.971L326.405 163.985L326.42 157.24Z" fill="#2563EB"/>
<path opacity="0.1" d="M326.374 176.396C326.435 176.396 326.494 176.396 326.552 176.406L326.374 176.405L326.37 177.972L320.359 177.958L320.374 171.206L326.386 171.22L326.374 176.396Z" fill="#2563EB"/>
<path opacity="0.1" d="M326.354 185.197L326.342 190.407C324.332 190.255 322.329 190.05 320.331 189.792L320.342 185.183L326.354 185.197Z" fill="#2563EB"/>
<path opacity="0.1" d="M296.491 152.283L270.72 152.224L270.719 152.719L296.49 152.779L296.491 152.283Z" fill="#2563EB"/>
<path opacity="0.1" d="M296.489 153.438L270.718 153.378L270.713 155.277L296.484 155.337L296.489 153.438Z" fill="#2563EB"/>
<path opacity="0.1" d="M296.47 161.561L270.699 161.501L270.692 164.555L296.463 164.615L296.47 161.561Z" fill="#2563EB"/>
<path opacity="0.1" d="M296.447 170.839L296.44 173.892L276.282 173.845C275.408 173.265 274.545 172.669 273.693 172.058C273.103 171.635 272.519 171.202 271.924 170.782L296.447 170.839Z" fill="#2563EB"/>
<path opacity="0.1" d="M296.425 180.115L296.418 183.165L294.29 183.16C291.901 182.221 289.558 181.197 287.263 180.089L296.425 180.115Z" fill="#2563EB"/>
<path opacity="0.1" d="M346.344 133.609L341.27 133.597L341.26 137.987L346.333 137.999L346.344 133.609Z" fill="#2563EB"/>
<path opacity="0.1" d="M236.545 112.899L231.472 112.887L231.462 117.277L236.535 117.289L236.545 112.899Z" fill="#2563EB"/>
<path opacity="0.1" d="M236.522 123.097L231.448 123.085L231.438 127.475L236.512 127.487L236.522 123.097Z" fill="#2563EB"/>
<path opacity="0.1" d="M236.498 133.294L231.425 133.282L231.415 137.673L236.488 137.684L236.498 133.294Z" fill="#2563EB"/>
<path opacity="0.1" d="M236.474 143.49L231.401 143.479L231.391 147.869L236.464 147.881L236.474 143.49Z" fill="#2563EB"/>
<path opacity="0.1" d="M236.451 153.688L231.378 153.676L231.367 158.067L236.441 158.078L236.451 153.688Z" fill="#2563EB"/>
<path opacity="0.1" d="M236.427 163.886L231.354 163.874L231.344 168.264L236.417 168.276L236.427 163.886Z" fill="#2563EB"/>
<path opacity="0.1" d="M365.711 133.654L360.638 133.642L360.627 138.032L365.701 138.044L365.711 133.654Z" fill="#2563EB"/>
<path opacity="0.1" d="M346.318 144.438L341.245 144.426L341.235 148.817L346.308 148.828L346.318 144.438Z" fill="#2563EB"/>
<path opacity="0.1" d="M365.686 144.483L360.612 144.471L360.602 148.861L365.676 148.873L365.686 144.483Z" fill="#2563EB"/>
<path opacity="0.1" d="M346.293 155.266L341.22 155.254L341.21 159.644L346.283 159.656L346.293 155.266Z" fill="#2563EB"/>
<path opacity="0.1" d="M365.661 155.31L360.587 155.299L360.577 159.689L365.65 159.701L365.661 155.31Z" fill="#2563EB"/>
<path opacity="0.1" d="M346.268 166.095L341.195 166.083L341.185 170.473L346.258 170.485L346.268 166.095Z" fill="#2563EB"/>
<path opacity="0.1" d="M365.636 166.139L360.562 166.128L360.552 170.518L365.625 170.53L365.636 166.139Z" fill="#2563EB"/>
<path opacity="0.1" d="M346.243 176.924L341.17 176.912L341.16 181.302L346.233 181.314L346.243 176.924Z" fill="#2563EB"/>
<path opacity="0.1" d="M365.61 176.968L360.537 176.957L360.527 181.347L365.6 181.359L365.61 176.968Z" fill="#2563EB"/>
<path opacity="0.1" d="M341.138 190.571L341.145 187.739L346.216 187.751L346.211 190.179L341.138 190.571Z" fill="#2563EB"/>
<path opacity="0.1" d="M206.104 125.067L206.098 127.578L223.461 127.619L223.466 125.107L206.104 125.067ZM207.829 127.425L206.413 127.422L206.418 125.222L207.845 125.225L207.829 127.425ZM209.558 127.429L208.131 127.426L208.136 125.226L209.563 125.229L209.558 127.429ZM211.283 127.433L209.856 127.43L209.861 125.23L211.288 125.233L211.283 127.433ZM213.011 127.437L211.586 127.434L211.591 125.234L213.018 125.237L213.011 127.437ZM214.738 127.441L213.311 127.438L213.316 125.238L214.743 125.241L214.738 127.441ZM216.466 127.445L215.039 127.442L215.044 125.242L216.472 125.245L216.466 127.445ZM218.195 127.449L216.768 127.446L216.773 125.246L218.2 125.249L218.195 127.449ZM219.922 127.453L218.495 127.45L218.5 125.25L219.927 125.253L219.922 127.453ZM221.649 127.457L220.221 127.454L220.227 125.254L221.654 125.257L221.649 127.457ZM223.375 127.461L221.948 127.458L221.953 125.258L223.38 125.261L223.375 127.461Z" fill="#2563EB"/>
<path opacity="0.1" d="M206.087 132.375L206.081 134.886L223.444 134.927L223.449 132.415L206.087 132.375ZM207.812 134.731L206.396 134.728L206.401 132.534L207.828 132.538L207.812 134.731ZM209.541 134.735L208.114 134.732L208.119 132.538L209.546 132.542L209.541 134.735ZM211.266 134.739L209.839 134.736L209.844 132.542L211.271 132.546L211.266 134.739ZM212.994 134.743L211.569 134.74L211.574 132.546L213.001 132.55L212.994 134.743ZM214.721 134.747L213.294 134.744L213.299 132.55L214.726 132.554L214.721 134.747ZM216.45 134.751L215.022 134.748L215.028 132.554L216.455 132.558L216.45 134.751ZM218.178 134.755L216.751 134.752L216.756 132.558L218.183 132.562L218.178 134.755ZM219.905 134.759L218.478 134.756L218.483 132.562L219.91 132.566L219.905 134.759ZM221.632 134.763L220.205 134.76L220.21 132.566L221.637 132.57L221.632 134.763ZM223.358 134.767L221.931 134.764L221.936 132.57L223.363 132.574L223.358 134.767Z" fill="#2563EB"/>
<path opacity="0.1" d="M206.07 139.686L206.064 142.202L223.427 142.242L223.432 139.726L206.07 139.686ZM207.795 142.042L206.379 142.039L206.384 139.844L207.811 139.847L207.795 142.042ZM209.524 142.046L208.097 142.043L208.102 139.848L209.529 139.851L209.524 142.046ZM211.249 142.05L209.822 142.047L209.827 139.852L211.254 139.855L211.249 142.05ZM212.977 142.054L211.552 142.051L211.557 139.856L212.984 139.859L212.977 142.054ZM214.704 142.058L213.277 142.055L213.282 139.86L214.709 139.863L214.704 142.058ZM216.433 142.062L215.005 142.059L215.011 139.864L216.438 139.867L216.433 142.062ZM218.161 142.066L216.734 142.063L216.739 139.868L218.166 139.871L218.161 142.066ZM219.888 142.07L218.461 142.067L218.466 139.872L219.893 139.875L219.888 142.07ZM221.615 142.074L220.188 142.071L220.193 139.876L221.62 139.879L221.615 142.074ZM223.341 142.078L221.914 142.075L221.919 139.88L223.346 139.883L223.341 142.078Z" fill="#2563EB"/>
<path opacity="0.1" d="M206.053 146.997L206.048 149.505L223.41 149.545L223.416 147.037L206.053 146.997ZM207.778 149.353L206.362 149.35L206.367 147.153L207.794 147.157L207.778 149.353ZM209.507 149.357L208.08 149.354L208.085 147.157L209.512 147.161L209.507 149.357ZM211.232 149.361L209.805 149.358L209.81 147.161L211.237 147.165L211.232 149.361ZM212.96 149.365L211.535 149.362L211.54 147.165L212.967 147.169L212.96 149.365ZM214.687 149.369L213.26 149.366L213.265 147.169L214.692 147.173L214.687 149.369ZM216.416 149.373L214.989 149.37L214.994 147.173L216.421 147.177L216.416 149.373ZM218.144 149.377L216.717 149.374L216.722 147.177L218.149 147.181L218.144 149.377ZM219.871 149.381L218.444 149.378L218.449 147.181L219.876 147.185L219.871 149.381ZM221.598 149.385L220.171 149.382L220.176 147.185L221.603 147.189L221.598 149.385ZM223.324 149.389L221.897 149.386L221.902 147.189L223.33 147.193L223.324 149.389Z" fill="#2563EB"/>
<path opacity="0.1" d="M206.111 154.306C206.18 154.543 206.258 154.779 206.34 155.012L206.341 154.464L207.768 154.467L207.763 156.663L207 156.661C207.023 156.712 207.046 156.767 207.069 156.815L223.393 156.853L223.399 154.346L206.111 154.306ZM209.495 156.667L208.068 156.663L208.073 154.468L209.5 154.472L209.495 156.667ZM211.22 156.671L209.793 156.667L209.798 154.472L211.225 154.476L211.22 156.671ZM212.949 156.675L211.518 156.671L211.523 154.476L212.95 154.479L212.949 156.675ZM214.676 156.679L213.248 156.675L213.254 154.48L214.681 154.484L214.676 156.679ZM216.404 156.683L214.977 156.679L214.982 154.484L216.409 154.488L216.404 156.683ZM218.133 156.687L216.706 156.683L216.711 154.488L218.138 154.492L218.133 156.687ZM219.859 156.691L218.432 156.687L218.437 154.492L219.864 154.496L219.859 156.691ZM221.586 156.695L220.159 156.691L220.164 154.496L221.591 154.5L221.586 156.695ZM223.313 156.699L221.886 156.695L221.891 154.5L223.318 154.504L223.313 156.699Z" fill="#2563EB"/>
<path opacity="0.1" d="M210.126 161.626C210.17 161.676 210.213 161.732 210.259 161.781L211.203 161.783L211.201 162.838C211.302 162.943 211.402 163.048 211.505 163.147L211.508 161.778L212.935 161.781L212.93 163.984L212.352 163.983C212.409 164.034 212.464 164.088 212.53 164.138L223.381 164.163L223.387 161.657L210.126 161.626ZM214.653 163.988L213.226 163.985L213.231 161.791L214.658 161.794L214.653 163.988ZM216.382 163.992L214.955 163.989L214.96 161.795L216.387 161.798L216.382 163.992ZM218.11 163.996L216.683 163.993L216.688 161.799L218.115 161.802L218.11 163.996ZM219.837 164L218.41 163.997L218.415 161.803L219.842 161.806L219.837 164ZM221.564 164.004L220.137 164.001L220.142 161.807L221.569 161.81L221.564 164.004ZM223.291 164.008L221.864 164.005L221.869 161.811L223.296 161.814L223.291 164.008Z" fill="#2563EB"/>
<path opacity="0.1" d="M219.633 168.958C219.795 169.039 219.961 169.113 220.128 169.194L220.128 169.117L221.556 169.12L221.554 169.815L221.857 169.937L221.859 169.121L223.286 169.124L223.283 170.459C223.31 170.471 223.339 170.48 223.368 170.487L223.372 168.967L219.633 168.958Z" fill="#2563EB"/>
<path opacity="0.1" d="M314.963 153.186C314.997 153.285 315.025 153.384 315.057 153.481C315.029 153.384 314.998 153.285 314.963 153.186ZM229.777 107.489L229.776 108.149L237.744 108.167L237.746 107.508L229.777 107.489ZM314.963 153.186C314.997 153.285 315.025 153.384 315.057 153.481C315.029 153.384 314.998 153.285 314.963 153.186ZM314.963 153.186C314.997 153.285 315.025 153.384 315.057 153.481C315.029 153.384 314.998 153.285 314.963 153.186Z" fill="#2563EB"/>
<path d="M285.206 137.8C285.206 137.8 284.504 137.714 284.506 136.828C284.508 135.942 284.009 134.286 284.009 134.286C284.009 134.278 283.58 131.403 282.98 130.944C282.38 130.486 281.614 127.801 281.614 127.801C281.614 127.801 281.485 126.345 281.217 126.031C280.948 125.717 280.586 124.949 280.051 123.853C279.517 122.758 277.28 121.995 277.28 121.995C277.28 121.995 273.237 119.954 272.092 119.289C271.988 119.234 271.89 119.17 271.801 119.098C271.602 118.871 270.732 118.864 270.732 118.864C270.642 118.367 270.556 117.796 270.528 117.278C270.528 117.223 270.529 117.167 270.52 117.112C271.8 116.46 272.766 115.431 273.24 114.213C273.261 114.154 273.279 114.092 273.299 114.034C273.376 114.012 273.446 113.977 273.506 113.93C273.566 113.883 273.614 113.827 273.648 113.763C273.751 113.564 273.754 113.331 273.883 113.146C274.033 112.927 274.319 112.81 274.544 112.646C275.112 112.23 275.26 111.528 275.235 110.889C275.218 110.372 275.123 109.85 275.162 109.336L275.173 109.206C275.183 109.129 275.196 109.052 275.212 108.978C275.301 108.595 275.492 108.234 275.6 107.855C275.708 107.475 275.72 107.048 275.471 106.72C275.106 106.239 274.345 106.142 273.676 106.091C272.918 106.033 272.24 106.104 271.756 105.558C271.53 105.273 271.275 105.005 270.994 104.758C270.895 104.678 269.925 104.163 269.926 104.129C268.979 103.747 267.906 103.674 266.902 103.922C266.399 104.047 265.924 104.253 265.414 104.355C264.312 104.578 263.047 104.331 262.111 104.874C261.589 105.181 261.276 105.671 260.982 106.149C260.743 106.543 260.501 106.936 260.255 107.329C259.859 107.974 259.456 108.631 259.289 109.347C259.254 109.503 259.232 109.661 259.223 109.819L259.223 109.827C259.223 109.884 259.223 109.941 259.223 109.998L259.223 110.071C259.223 110.125 259.223 110.177 259.233 110.225C259.244 110.273 259.242 110.289 259.247 110.321C259.253 110.353 259.261 110.426 259.272 110.475C259.283 110.525 259.304 110.611 259.325 110.679C259.334 110.709 259.346 110.736 259.357 110.764C259.375 110.817 259.396 110.868 259.419 110.919C259.431 110.945 259.444 110.973 259.458 110.999C259.485 111.053 259.517 111.106 259.549 111.154C259.563 111.175 259.574 111.195 259.588 111.216C259.637 111.287 259.692 111.357 259.751 111.423C260.132 111.836 260.693 112.1 261.108 112.486C261.108 112.502 261.108 112.517 261.108 112.531C261.108 112.574 261.108 112.616 261.108 112.659C261.128 113.52 261.391 114.364 261.873 115.117C262.356 115.87 263.044 116.51 263.877 116.98C263.877 117.039 263.886 117.099 263.889 117.158C263.923 117.616 263.915 118.076 263.866 118.533C263.794 118.459 263.703 118.4 263.601 118.36C263.498 118.32 263.387 118.301 263.275 118.304C263.198 118.3 263.121 118.306 263.046 118.32L263.03 118.309L263.03 118.323C262.638 118.405 262.153 118.758 261.689 119.762C261.689 119.762 260.28 121.129 259.21 121.07C258.14 121.01 255.427 122.487 255.427 122.487C255.427 122.487 252.78 123.966 252.209 125.478C251.89 126.335 251.508 127.173 251.065 127.988L247.783 133.808L247.17 138.43C247.17 138.43 247.498 140.487 247.432 140.8C247.365 141.114 248.796 143.943 248.796 143.943C248.796 143.943 253.53 151.177 255.47 151.552L255.609 151.468C255.692 151.506 255.78 151.534 255.871 151.553L256.271 151.31C256.295 151.582 256.284 151.855 256.239 152.125C255.97 152.838 256.327 157.493 256.792 158.406C257.257 159.32 257.064 171.282 257.064 171.282L256.995 172.337C256.995 172.337 256.995 172.371 257.011 172.43L256.994 172.68L257.042 172.702C257.092 173.037 257.075 173.377 256.992 173.707C256.823 174.169 256.752 175.478 256.752 175.478C256.752 175.478 255.399 182.866 256.029 184.353C256.659 185.839 257.194 187.468 257.194 187.468C257.194 187.468 257.858 189.322 257.221 189.637C256.583 189.952 254.771 190.478 255.142 191.251C255.48 191.965 256.761 193.879 256.952 194.159L256.935 194.306L256.667 196.764C256.709 197.089 256.81 197.406 256.967 197.703C257.253 198.24 257.81 198.797 258.871 198.739C259.05 198.729 259.257 198.711 259.456 198.688C261.4 198.467 263.793 197.722 263.793 197.722C263.669 197.654 263.556 197.572 263.455 197.479C263.36 197.399 263.284 197.303 263.233 197.196C263.182 197.09 263.157 196.976 263.159 196.861C263.188 196.413 262.224 194.278 261.985 193.752C261.948 193.677 261.928 193.633 261.928 193.633C261.928 193.633 264.141 191.641 263.778 189.869C263.778 189.869 261.337 188.629 262.143 187.953C262.949 187.277 264.391 185.334 264.391 185.334C264.391 185.334 264.474 178.056 264.411 176.969C264.343 176.214 264.387 175.455 264.539 174.71C264.566 174.598 264.598 174.488 264.632 174.38C265.745 174.527 266.868 174.603 267.993 174.609C268.403 174.61 268.82 174.611 269.241 174.59C269.241 174.693 269.246 174.804 269.257 174.924C269.345 176.727 269.511 179.889 269.649 181.064C269.845 182.748 270.939 187.29 270.939 187.29C270.939 187.29 268.829 188.455 271.297 191.344C271.297 191.344 271.294 192.389 271.13 192.54C270.954 193.034 270.811 193.537 270.704 194.046C270.599 194.589 270.555 195.138 270.722 195.424C271.122 196.108 273.53 196.058 273.53 196.058L273.589 196.049C274.044 196.009 274.503 196.048 274.94 196.163C275.378 196.278 275.784 196.467 276.136 196.72C277.05 197.358 280.524 197.087 282.404 196.889C283.141 196.81 283.634 196.737 283.634 196.737C283.658 196.665 283.667 196.59 283.659 196.515C283.641 196.115 283.281 195.237 280.828 194.449C280.828 194.449 278.523 193.101 278.558 191.931L278.509 191.93L278.242 191.93C278.436 191.921 278.561 191.931 278.561 191.931C278.561 191.931 277.663 189.073 278.033 188.842C278.403 188.611 277.304 185.444 277.304 185.444C277.304 185.444 276.683 180.132 276.65 179.76C276.652 179.441 276.709 179.124 276.818 178.819L276.659 175.907C276.659 175.907 276.629 174.939 276.662 174.624C276.657 174.351 276.632 174.078 276.587 173.808C276.572 173.699 276.556 173.587 276.538 173.476C277.404 173.288 277.966 173.113 277.966 173.113L277.89 162.978C278.627 161.745 278.769 159.036 278.77 157.114C278.773 155.879 278.711 154.965 278.711 154.965L279.719 153.549C279.719 153.549 279.954 151.851 279.588 151.479C279.426 151.31 279.499 151.136 279.633 150.992C279.703 150.945 279.777 150.902 279.853 150.863C279.853 150.863 279.843 150.849 279.83 150.829C279.9 150.779 279.975 150.733 280.053 150.692C280.053 150.692 279.698 150.213 280.018 150.012C280.317 150.188 280.584 150.322 280.787 150.43C280.773 150.543 280.758 150.608 280.758 150.608L280.844 150.453C281.04 150.55 281.16 150.608 281.16 150.608C281.16 150.608 282.739 147.9 282.706 147.5C282.673 147.1 283.781 145.418 283.781 145.418C283.781 145.418 283.917 144.534 284.521 144.165C285.125 143.796 284.995 141.111 284.995 141.111C284.995 141.111 285.166 139.713 285.569 139.143C285.972 138.573 285.206 137.8 285.206 137.8ZM255.105 136.54L255.134 137.187C254.956 136.938 254.828 136.759 254.828 136.759L255.105 136.54Z" fill="url(#paint0_linear_1_169)"/>
<path d="M281.248 149.437L280.859 150.856C280.859 150.856 277.776 149.486 277.224 147.753C276.671 146.019 278.161 145.365 278.161 145.365L281.034 146.426L281.248 149.437Z" fill="white"/>
<path opacity="0.1" d="M281.248 149.437L280.859 150.856C280.859 150.856 277.776 149.486 277.224 147.753C276.671 146.019 278.161 145.365 278.161 145.365L281.034 146.426L281.248 149.437Z" fill="black"/>
<path d="M263.817 197.732C263.817 197.732 260.96 198.633 258.998 198.742C257.956 198.8 257.41 198.246 257.129 197.713C256.976 197.417 256.877 197.101 256.837 196.778L257.098 194.332L257.236 193.03L261.407 192.102L261.994 193.666L262.049 193.785C262.285 194.307 263.231 196.432 263.201 196.875C263.2 196.988 263.225 197.101 263.275 197.206C263.325 197.311 263.399 197.406 263.492 197.485C263.588 197.579 263.697 197.662 263.817 197.732Z" fill="white"/>
<path d="M283.315 196.533C283.322 196.607 283.313 196.682 283.29 196.753C283.29 196.753 277.183 197.621 275.937 196.736C275.585 196.478 275.175 196.286 274.733 196.173C274.291 196.06 273.826 196.028 273.369 196.079C273.369 196.079 271.007 196.129 270.615 195.455C270.451 195.172 270.495 194.624 270.598 194.084C270.703 193.578 270.843 193.078 271.016 192.586L271.11 192.522L271.673 192.132L278.252 191.979L278.302 191.979C278.268 193.143 280.53 194.484 280.53 194.484C282.935 195.261 283.287 196.134 283.315 196.533Z" fill="white"/>
<path opacity="0.1" d="M283.315 196.533C283.321 196.607 283.312 196.682 283.288 196.753C283.288 196.753 277.183 197.621 275.937 196.736C275.585 196.478 275.176 196.286 274.734 196.173C274.292 196.06 273.828 196.028 273.371 196.079C273.371 196.079 271.007 196.129 270.617 195.455C270.453 195.171 270.495 194.624 270.598 194.084C271.508 194.165 272.943 194.364 273.506 194.833C274.357 195.547 275.8 196.26 276.687 196.318C277.381 196.358 281.531 196.482 283.315 196.533Z" fill="black"/>
<path opacity="0.1" d="M263.817 197.732C263.817 197.732 260.96 198.633 258.998 198.742C257.956 198.8 257.41 198.246 257.131 197.712C257.856 197.925 258.864 198.149 259.394 197.947C260.022 197.707 262.249 197.557 263.498 197.493C263.593 197.583 263.7 197.664 263.817 197.732Z" fill="black"/>
<path d="M268.221 124.593C265.868 123.796 262.845 121.172 263.604 119.951C263.773 119.643 263.874 119.311 263.901 118.97C263.951 118.509 263.959 118.044 263.926 117.581C263.874 116.823 263.771 116.068 263.615 115.32C263.615 115.32 270.966 115.481 270.536 116.417C270.41 116.691 270.389 117.168 270.422 117.703C270.455 118.237 270.543 118.841 270.634 119.352C270.761 120.053 270.888 120.587 270.888 120.587C270.888 120.587 270.437 121.131 270.173 121.16C269.909 121.189 271.597 125.73 268.221 124.593Z" fill="#CF6F80"/>
<path opacity="0.1" d="M262.044 193.785L261.988 193.837C259.796 191.532 257.131 194.393 257.131 194.393L257.092 194.332L257.231 193.03L261.402 192.102L261.989 193.666L262.044 193.785Z" fill="black"/>
<path opacity="0.1" d="M278.304 192.142C278.304 192.142 276.698 192.108 275.841 192.761C274.983 193.414 270.845 192.891 271.024 192.75C271.077 192.68 271.109 192.599 271.117 192.515L271.68 192.126L278.26 191.973C278.284 192.077 278.304 192.142 278.304 192.142Z" fill="black"/>
<path d="M264.824 174.047C264.704 174.303 264.612 174.568 264.551 174.839C264.401 175.58 264.357 176.335 264.423 177.086C264.486 178.167 264.403 185.408 264.403 185.408C264.403 185.408 262.988 187.336 262.2 188.015C261.411 188.694 263.801 189.922 263.801 189.922C264.153 191.683 261.987 193.666 261.987 193.666C259.794 191.361 257.13 194.223 257.13 194.223C257.13 194.223 255.69 192.058 255.331 191.286C254.973 190.513 256.745 189.983 257.369 189.671C257.992 189.359 257.343 187.51 257.343 187.51C257.343 187.51 256.821 185.889 256.2 184.41C255.579 182.932 256.909 175.58 256.909 175.58C256.909 175.58 256.98 174.275 257.143 173.82C257.226 173.491 257.243 173.153 257.194 172.819C257.183 172.707 257.171 172.612 257.162 172.549C257.154 172.486 257.146 172.457 257.146 172.457L257.171 172.42L258.067 170.983C258.067 170.983 265.254 173.142 264.824 174.047Z" fill="#E6E6E6"/>
<path d="M278.304 191.972C278.304 191.972 276.699 191.939 275.841 192.583C274.983 193.228 270.846 192.714 271.025 192.572C271.203 192.431 271.191 191.379 271.191 191.379C268.77 188.506 270.844 187.346 270.844 187.346C270.844 187.346 269.77 182.829 269.578 181.153C269.443 179.983 269.281 176.838 269.194 175.042C269.156 174.27 269.135 173.739 269.135 173.739L271.119 173.398L271.374 173.354L276.16 172.535C276.16 172.535 276.291 173.307 276.378 173.938C276.422 174.208 276.447 174.48 276.451 174.752C276.419 175.061 276.448 176.027 276.448 176.027L276.604 178.925C276.497 179.229 276.442 179.544 276.44 179.862C276.471 180.231 277.081 185.515 277.081 185.515C277.081 185.515 278.157 188.669 277.787 188.895C277.417 189.122 278.304 191.972 278.304 191.972Z" fill="#E6E6E6"/>
<path opacity="0.1" d="M270.536 116.417C270.41 116.691 270.389 117.168 270.422 117.703C269.436 118.213 268.304 118.473 267.154 118.452C266.005 118.431 264.886 118.129 263.926 117.583C263.874 116.824 263.771 116.068 263.615 115.32C263.615 115.32 270.966 115.478 270.536 116.417Z" fill="black"/>
<path d="M273.385 113.012C273.385 113.568 273.283 114.121 273.082 114.649C272.632 115.833 271.713 116.84 270.488 117.494C269.262 118.147 267.809 118.405 266.385 118.221C264.96 118.037 263.657 117.423 262.704 116.487C261.752 115.552 261.212 114.356 261.18 113.11C261.18 113.067 261.18 113.027 261.18 112.984C261.168 112.282 261.317 111.586 261.619 110.936C261.921 110.285 262.37 109.693 262.939 109.194C263.509 108.695 264.187 108.3 264.935 108.03C265.683 107.761 266.486 107.623 267.296 107.625C268.106 107.627 268.908 107.768 269.655 108.041C270.402 108.314 271.079 108.713 271.646 109.214C272.213 109.716 272.659 110.31 272.958 110.962C273.256 111.614 273.403 112.311 273.387 113.012L273.385 113.012Z" fill="#CF6F80"/>
<path opacity="0.1" d="M268.221 124.593C265.868 123.796 262.845 121.172 263.604 119.951C263.773 119.643 263.874 119.311 263.901 118.97L267.119 121.27L269.11 122.69L270.634 119.353C270.761 120.054 270.888 120.589 270.888 120.589C270.888 120.589 270.437 121.133 270.173 121.161C269.909 121.19 271.597 125.73 268.221 124.593Z" fill="black"/>
<path d="M276.533 134.744L273.751 173.87L270.24 174.061L261.202 151.35L262.756 124.414L263.083 118.723L267.118 121.605L269.111 123.025L270.68 119.591L273.577 121.787L276.533 134.744Z" fill="#2563EB"/>
<path opacity="0.1" d="M264.824 174.047C264.704 174.303 264.612 174.568 264.551 174.839C261.997 174.491 259.518 173.815 257.195 172.832L257.147 172.81L257.164 172.562L257.173 172.432L258.068 170.995C258.068 170.995 265.254 173.142 264.824 174.047Z" fill="black"/>
<path opacity="0.1" d="M271.157 174.86C270.503 174.955 269.845 175.018 269.183 175.05C269.146 174.278 269.124 173.747 269.124 173.747L271.108 173.406L271.157 174.86Z" fill="black"/>
<path opacity="0.1" d="M276.368 173.946C275.099 174.229 273.139 174.545 271.386 174.34L271.363 173.362L276.15 172.542C276.15 172.542 276.28 173.307 276.368 173.946Z" fill="black"/>
<path opacity="0.1" d="M271.354 174.519C264.037 175.583 257.346 172.469 257.346 172.469L257.413 171.42C257.413 171.42 257.606 159.52 257.148 158.606C256.69 157.693 256.342 153.066 256.604 152.356C256.866 151.647 255.68 140.995 255.68 140.995L255.494 136.673L248.318 134.138L251.542 128.354C251.978 127.543 252.353 126.708 252.665 125.855C253.226 124.353 255.822 122.882 255.822 122.882C255.822 122.882 258.483 121.412 259.534 121.47C260.584 121.528 261.964 120.17 261.964 120.17C262.986 117.929 263.905 118.947 263.905 118.947C263.904 119.054 263.905 118.947 263.854 119.279C263.491 121.74 269.599 129.535 269.686 129.672L270.241 141.971L270.795 157.534L271.354 174.519Z" fill="black"/>
<path d="M271.157 174.519C263.841 175.583 257.148 172.469 257.148 172.469L257.217 171.419C257.217 171.419 257.41 159.519 256.95 158.606C256.49 157.693 256.144 153.065 256.408 152.356C256.672 151.646 255.484 140.995 255.484 140.995L255.296 136.672L248.116 134.128L251.341 128.344C251.775 127.533 252.15 126.698 252.463 125.846C253.023 124.343 255.62 122.872 255.62 122.872C255.62 122.872 258.282 121.403 259.33 121.461C260.379 121.519 261.761 120.16 261.761 120.16C262.785 117.92 263.905 118.938 263.905 118.938C263.904 119.044 263.797 119.092 263.854 119.27C264.633 121.66 269.403 129.525 269.49 129.663L270.052 141.961L270.606 157.525L271.157 174.519Z" fill="white"/>
<path opacity="0.1" d="M269.289 130.013C268.503 129.727 264.346 125.6 264.346 125.6L264.348 124.663C264.197 124.354 263.296 124.54 262.564 124.755L262.891 119.064L263.247 119.321C264.023 121.709 269.199 129.875 269.289 130.013Z" fill="black"/>
<path d="M269.488 129.672C268.7 129.386 264.543 125.259 264.543 125.259L264.545 124.322C264.394 124.013 263.493 124.199 262.761 124.414L263.09 118.723L263.446 118.98C264.224 121.368 269.401 129.536 269.488 129.672Z" fill="white"/>
<path opacity="0.1" d="M257.398 150.177C257.496 150.177 262.485 149.735 262.485 149.735C262.485 149.735 265.493 154.881 265.292 156.131C265.091 157.381 264.73 158.487 263.516 158.288C262.301 158.089 256.977 158.427 256.977 158.427L257.398 150.177Z" fill="black"/>
<path d="M257.201 149.835C257.299 149.835 262.287 149.393 262.287 149.393C262.287 149.393 265.294 154.541 265.095 155.789C264.896 157.037 264.531 158.145 263.318 157.946C262.106 157.747 256.78 158.085 256.78 158.085L257.201 149.835Z" fill="white"/>
<path d="M260.965 147.431C260.965 147.431 265.537 149.57 265.634 150.221C265.73 150.871 263.305 149.931 262.781 149.817C262.436 149.744 262.084 149.696 261.73 149.673L258.232 149.746L260.965 147.431Z" fill="#CF6F80"/>
<path opacity="0.1" d="M268.012 130.275C268.278 130.276 268.494 130.09 268.494 129.859C268.495 129.629 268.279 129.442 268.013 129.442C267.747 129.441 267.531 129.627 267.531 129.857C267.53 130.087 267.746 130.275 268.012 130.275Z" fill="black"/>
<path d="M268.012 130.105C268.278 130.106 268.494 129.92 268.495 129.69C268.495 129.459 268.28 129.272 268.014 129.272C267.748 129.271 267.532 129.457 267.531 129.687C267.531 129.918 267.746 130.105 268.012 130.105Z" fill="#3F3D56"/>
<path opacity="0.1" d="M268.856 148.32C269.122 148.321 269.338 148.134 269.339 147.904C269.339 147.674 269.124 147.487 268.858 147.486C268.592 147.486 268.376 147.672 268.376 147.902C268.375 148.132 268.59 148.319 268.856 148.32Z" fill="black"/>
<path d="M268.857 148.149C269.123 148.149 269.339 147.963 269.339 147.733C269.34 147.503 269.125 147.316 268.859 147.315C268.593 147.314 268.377 147.501 268.376 147.731C268.375 147.961 268.591 148.148 268.857 148.149Z" fill="#3F3D56"/>
<path opacity="0.1" d="M268.47 139.298C268.736 139.298 268.953 139.112 268.953 138.882C268.954 138.652 268.738 138.465 268.472 138.464C268.206 138.463 267.99 138.65 267.99 138.88C267.989 139.11 268.204 139.297 268.47 139.298Z" fill="black"/>
<path d="M268.471 139.128C268.737 139.128 268.953 138.942 268.953 138.712C268.954 138.482 268.739 138.295 268.473 138.294C268.207 138.294 267.991 138.48 267.99 138.71C267.99 138.94 268.205 139.127 268.471 139.128Z" fill="#3F3D56"/>
<path d="M279.549 149.628C279.549 149.628 279.876 150.054 279.548 150.253C279.219 150.451 279.578 150.934 279.578 150.934C279.578 150.934 278.759 151.347 279.118 151.721C279.478 152.096 279.245 153.783 279.245 153.783L278.257 155.191C278.257 155.191 278.314 156.101 278.315 157.329C278.31 159.247 278.174 161.942 277.45 163.169L277.527 173.251C277.527 173.251 274.076 174.333 271.191 173.994L270.8 157.815C270.8 157.815 271.446 148.642 271.68 146.883C271.817 145.97 271.874 145.049 271.85 144.128C271.85 144.128 271.759 141.374 271.432 140.095C271.432 140.095 271.088 134.557 271.056 133.024C271.041 132.291 271.091 130.151 271.145 128.117C271.206 125.892 271.273 123.795 271.273 123.795L270.632 119.335C270.632 119.335 271.284 119.279 271.479 119.507C271.567 119.578 271.662 119.642 271.764 119.697C272.887 120.357 276.853 122.389 276.853 122.389C276.853 122.389 279.049 123.15 279.572 124.235C280.096 125.32 280.46 126.09 280.714 126.399C280.969 126.708 281.105 128.16 281.105 128.16C281.105 128.16 281.855 130.832 282.444 131.286C283.034 131.739 283.459 134.618 283.459 134.618L278.233 138.156C278.233 138.156 277.76 144.061 277.662 144.29C277.563 144.518 279.549 149.628 279.549 149.628Z" fill="white"/>
<path d="M279.747 149.628C279.747 149.628 280.073 150.055 279.746 150.253C279.419 150.452 279.775 150.934 279.775 150.934C279.775 150.934 278.96 151.352 279.316 151.726C279.672 152.101 279.443 153.788 279.443 153.788L278.455 155.196C278.455 155.196 278.512 156.106 278.515 157.334C278.51 159.252 278.374 161.947 277.65 163.174L277.725 173.256C277.725 173.256 274.269 174.338 271.387 173.999L270.998 157.82C270.998 157.82 271.644 148.648 271.878 146.888C272.015 145.975 272.071 145.054 272.047 144.133C272.047 144.133 271.955 141.379 271.63 140.1C271.63 140.1 271.286 134.562 271.252 133.029C271.237 132.296 271.289 130.156 271.342 128.122C271.402 125.897 271.469 123.8 271.469 123.8L270.62 119.279C270.62 119.279 271.48 119.281 271.677 119.512C271.764 119.584 271.86 119.648 271.962 119.702C273.085 120.362 277.053 122.394 277.053 122.394C277.053 122.394 279.247 123.155 279.77 124.24C280.294 125.325 280.658 126.095 280.914 126.404C281.17 126.713 281.303 128.165 281.303 128.165C281.303 128.165 282.053 130.837 282.642 131.291C283.232 131.745 283.651 134.617 283.651 134.617L278.425 138.155C278.425 138.155 277.953 144.06 277.853 144.289C277.752 144.517 279.747 149.628 279.747 149.628Z" fill="white"/>
<path opacity="0.1" d="M273.555 125.115L274.023 126.305L271.539 128.46C271.599 126.237 271.667 124.138 271.667 124.138L270.817 119.618C270.817 119.618 271.677 119.62 271.875 119.85C271.961 119.922 272.057 119.985 272.16 120.039L274.256 125.308L273.555 125.115Z" fill="black"/>
<path d="M273.358 124.773L273.828 125.963L271.343 128.119C271.404 125.894 271.471 123.797 271.471 123.797L270.62 119.276C270.62 119.276 271.482 119.278 271.677 119.509C271.765 119.58 271.86 119.644 271.962 119.699L274.06 124.966L273.358 124.773Z" fill="white"/>
<path opacity="0.1" d="M273.385 113.012C273.385 113.568 273.283 114.121 273.082 114.649C273.048 114.654 273.014 114.652 272.981 114.645C272.948 114.638 272.916 114.625 272.889 114.607C272.846 113.218 272.059 111.911 271.089 110.799C270.817 110.463 270.487 110.166 270.11 109.917C269.729 109.668 269.255 109.551 268.78 109.588C268.245 109.65 267.771 109.964 267.231 110.003C266.517 110.052 265.88 109.623 265.171 109.6C264.883 109.602 264.599 109.656 264.338 109.761C264.077 109.865 263.844 110.016 263.655 110.205C263.283 110.585 263.005 111.028 262.841 111.506C262.559 112.23 262.404 112.988 262.383 113.752C262.373 114.184 262.323 114.726 261.859 114.882C261.895 114.565 261.854 114.244 261.739 113.94C261.624 113.637 261.437 113.357 261.191 113.12L261.18 113.11C261.18 113.067 261.18 113.027 261.18 112.984C261.168 112.282 261.317 111.586 261.619 110.936C261.921 110.285 262.37 109.693 262.939 109.194C263.509 108.695 264.187 108.3 264.935 108.03C265.683 107.761 266.486 107.623 267.296 107.625C268.106 107.627 268.908 107.768 269.655 108.041C270.402 108.314 271.079 108.713 271.646 109.214C272.213 109.716 272.659 110.31 272.958 110.962C273.256 111.614 273.403 112.311 273.387 113.012L273.385 113.012Z" fill="black"/>
<path d="M269.83 104.617C268.904 104.237 267.85 104.163 266.866 104.409C266.371 104.535 265.905 104.739 265.404 104.841C264.333 105.063 263.085 104.817 262.165 105.357C261.654 105.665 261.346 106.152 261.059 106.625L260.343 107.8C259.953 108.442 259.559 109.096 259.395 109.804C259.231 110.512 259.327 111.306 259.845 111.877C260.222 112.293 260.78 112.555 261.189 112.947C261.434 113.185 261.62 113.464 261.735 113.767C261.85 114.07 261.891 114.391 261.856 114.708C262.322 114.555 262.368 114.011 262.379 113.579C262.401 112.815 262.555 112.057 262.838 111.333C263.002 110.855 263.279 110.411 263.652 110.032C263.841 109.844 264.074 109.692 264.335 109.588C264.596 109.484 264.88 109.429 265.168 109.427C265.882 109.45 266.521 109.878 267.228 109.828C267.763 109.791 268.238 109.476 268.777 109.415C269.252 109.377 269.726 109.495 270.107 109.744C270.484 109.993 270.813 110.29 271.084 110.626C272.056 111.738 272.843 113.042 272.886 114.434C273.087 114.563 273.378 114.397 273.479 114.199C273.579 114.002 273.583 113.77 273.71 113.582C273.857 113.365 274.137 113.25 274.357 113.087C274.915 112.673 275.056 111.974 275.036 111.339C275.016 110.705 274.874 110.061 275.015 109.437C275.1 109.055 275.29 108.697 275.394 108.319C275.498 107.941 275.512 107.517 275.268 107.19C274.913 106.711 274.162 106.615 273.507 106.569C272.763 106.512 272.098 106.581 271.625 106.038C271.403 105.755 271.153 105.489 270.877 105.243C270.783 105.162 269.83 104.651 269.83 104.617Z" fill="#512E4E"/>
<path opacity="0.1" d="M250.366 137.125L248.509 134.139L247.907 138.739C247.907 138.739 248.231 140.784 248.164 141.097C248.098 141.41 249.502 144.223 249.502 144.223C249.502 144.223 254.147 151.418 256.049 151.793L262.489 147.831L260.788 145.953C260.788 145.953 260.198 145.753 260.05 145.952C260.05 145.952 256.894 141.23 256.567 140.888C256.239 140.546 256.305 139.865 256.305 139.865C256.305 139.865 255.814 139.41 255.979 138.985C256.144 138.559 255.032 137.079 255.032 137.079L256.051 136.259L250.366 137.125Z" fill="black"/>
<path d="M248.607 133.799L248.114 134.138L247.513 138.738C247.513 138.738 247.837 140.783 247.77 141.096C247.703 141.409 249.11 144.222 249.11 144.222C249.11 144.222 253.752 151.417 255.655 151.792L262.097 147.83L260.394 145.952C260.394 145.952 259.804 145.752 259.655 145.951C259.655 145.951 256.5 141.229 256.172 140.887C255.845 140.545 255.913 139.864 255.913 139.864C255.913 139.864 255.421 139.409 255.586 138.984C255.752 138.558 254.638 137.078 254.638 137.078L255.657 136.258L248.607 133.799Z" fill="white"/>
<path opacity="0.1" d="M279.118 151.897C279.474 152.273 279.245 153.957 279.245 153.957L278.257 155.366C278.257 155.366 278.314 156.277 278.314 157.504L276.658 157.948C276.508 157.988 276.35 157.996 276.195 157.972C276.041 157.949 275.895 157.893 275.771 157.811C275.646 157.729 275.546 157.622 275.479 157.499C275.412 157.377 275.379 157.242 275.384 157.106L275.688 149.14L279.547 150.427C279.219 150.624 279.578 151.11 279.578 151.11C279.578 151.11 278.758 151.521 279.118 151.897Z" fill="black"/>
<path d="M279.316 151.726C279.672 152.102 279.443 153.788 279.443 153.788L278.455 155.196C278.455 155.196 278.512 156.106 278.515 157.334L276.828 157.786C276.681 157.825 276.526 157.833 276.375 157.81C276.224 157.786 276.081 157.732 275.959 157.652C275.837 157.571 275.739 157.466 275.674 157.346C275.608 157.226 275.576 157.095 275.581 156.962L275.887 148.971L279.748 150.258C279.417 150.455 279.776 150.939 279.776 150.939C279.776 150.939 278.96 151.352 279.316 151.726Z" fill="white"/>
<path d="M280.604 147.932C280.604 147.932 280.338 149.381 279.682 149.464C279.025 149.548 278.725 151.807 278.071 151.725C277.416 151.643 277.855 149.624 277.879 149.232C277.903 148.84 277.17 147.214 277.722 146.846C278.274 146.479 280.018 146.852 280.018 146.852L280.604 147.932Z" fill="#CF6F80"/>
<path opacity="0.1" d="M282.026 136.773L283.269 134.614C283.269 134.614 283.758 136.263 283.756 137.143C283.754 138.022 284.442 138.111 284.442 138.111C284.442 138.111 285.195 138.884 284.796 139.445C284.397 140.006 284.233 141.404 284.233 141.404C284.233 141.404 284.357 144.074 283.766 144.441C283.175 144.809 283.049 145.69 283.049 145.69C283.049 145.69 281.961 147.362 281.994 147.761C282.027 148.159 280.478 150.852 280.478 150.852C280.478 150.852 281.24 147.503 276.846 146.045C276.846 146.045 276.815 144.907 277.144 144.596C277.473 144.285 277.985 144.144 277.668 142.567C277.35 140.99 277.583 139.107 277.584 138.729C277.585 138.351 278.575 135.994 278.575 135.994L282.026 136.773Z" fill="black"/>
<path d="M282.567 134.304L283.648 134.615C283.648 134.615 284.138 136.264 284.136 137.143C284.134 138.023 284.822 138.111 284.822 138.111C284.822 138.111 285.575 138.885 285.176 139.446C284.777 140.007 284.615 141.405 284.615 141.405C284.615 141.405 284.739 144.075 284.148 144.442C283.556 144.81 283.422 145.691 283.422 145.691C283.422 145.691 282.336 147.363 282.368 147.762C282.401 148.16 280.85 150.853 280.85 150.853C280.85 150.853 281.615 147.504 277.219 146.045C277.219 146.045 277.189 144.908 277.518 144.597C277.847 144.286 278.36 144.145 278.042 142.568C277.725 140.991 277.957 139.108 277.958 138.73C277.959 138.352 278.949 135.995 278.949 135.995L282.567 134.304Z" fill="white"/>
<path opacity="0.1" d="M262.913 188.037C262.913 188.037 264.639 187.104 265.768 187.787C266.898 188.47 262.913 188.037 262.913 188.037Z" fill="black"/>
<path opacity="0.1" d="M271.957 187.398C271.957 187.398 273.483 187.232 274.761 188.428C276.039 189.625 271.957 187.398 271.957 187.398Z" fill="black"/>
<g opacity="0.1">
<path d="M274.362 112.749C274.142 112.912 273.86 113.029 273.713 113.246C273.588 113.432 273.584 113.662 273.483 113.863C273.383 114.063 273.092 114.226 272.89 114.099C272.847 112.71 272.058 111.403 271.089 110.29C270.818 109.954 270.488 109.656 270.111 109.408C269.73 109.158 269.255 109.041 268.78 109.079C268.244 109.141 267.773 109.455 267.232 109.492C266.518 109.543 265.879 109.114 265.171 109.09C264.883 109.092 264.599 109.147 264.338 109.252C264.077 109.356 263.844 109.508 263.657 109.697C263.283 110.076 263.006 110.519 262.842 110.996C262.56 111.721 262.405 112.478 262.384 113.243C262.372 113.673 262.324 114.211 261.864 114.37C261.874 114.484 261.874 114.599 261.863 114.713C262.327 114.559 262.375 114.016 262.386 113.584C262.408 112.819 262.563 112.062 262.845 111.337C263.009 110.859 263.286 110.416 263.659 110.036C263.848 109.848 264.08 109.697 264.341 109.593C264.602 109.488 264.886 109.434 265.174 109.432C265.887 109.455 266.528 109.882 267.235 109.833C267.77 109.796 268.245 109.48 268.782 109.42C269.258 109.382 269.733 109.499 270.114 109.749C270.491 109.997 270.82 110.295 271.091 110.631C272.061 111.743 272.85 113.046 272.893 114.439C273.094 114.567 273.386 114.401 273.486 114.204C273.586 114.007 273.59 113.775 273.716 113.587C273.862 113.37 274.145 113.255 274.364 113.091C274.922 112.677 275.063 111.978 275.043 111.344C275.043 111.324 275.043 111.304 275.043 111.285C275.008 111.835 274.837 112.395 274.362 112.749Z" fill="black"/>
<path d="M261.194 112.609C260.784 112.217 260.225 111.955 259.849 111.54C259.533 111.173 259.353 110.732 259.333 110.275C259.276 110.846 259.459 111.416 259.848 111.88C260.224 112.296 260.783 112.558 261.193 112.95C261.586 113.333 261.821 113.818 261.862 114.328C261.89 114.018 261.845 113.705 261.73 113.41C261.616 113.114 261.433 112.842 261.194 112.609Z" fill="black"/>
<path d="M275.398 107.981C275.292 108.359 275.104 108.718 275.018 109.099C274.966 109.354 274.947 109.613 274.961 109.871C274.967 109.724 274.986 109.578 275.017 109.433C275.103 109.05 275.292 108.692 275.398 108.315C275.459 108.106 275.48 107.89 275.458 107.676C275.447 107.779 275.427 107.881 275.398 107.981Z" fill="black"/>
</g>
<path opacity="0.1" d="M226.405 196.467C236.005 196.489 243.789 195.426 243.792 194.092C243.795 192.757 236.016 191.658 226.416 191.635C216.816 191.613 209.032 192.677 209.029 194.011C209.026 195.345 216.805 196.445 226.405 196.467Z" fill="#2563EB"/>
<path d="M227.078 147.772L225.959 147.77L225.909 169.562L227.027 169.565L227.078 147.772Z" fill="#535461"/>
<path d="M234.056 169.515L233.984 170.496L233.881 171.885L233.839 172.463L233.737 173.852L233.693 174.429L233.59 175.818L232.426 191.572C232.375 192.25 232.028 192.885 231.455 193.349C230.882 193.813 230.126 194.07 229.341 194.069L223.48 194.055C222.695 194.053 221.94 193.792 221.37 193.326C220.799 192.859 220.455 192.222 220.408 191.544L219.323 175.774L219.226 174.385L219.186 173.807L219.09 172.418L219.05 171.84L218.953 170.451L218.884 169.469C218.872 169.28 218.905 169.091 218.981 168.913C219.056 168.736 219.173 168.573 219.324 168.436C219.474 168.299 219.656 168.19 219.857 168.116C220.058 168.041 220.274 168.004 220.493 168.004L232.482 168.032C232.7 168.034 232.915 168.075 233.114 168.152C233.313 168.229 233.492 168.34 233.64 168.479C233.787 168.618 233.9 168.782 233.972 168.96C234.043 169.138 234.072 169.327 234.056 169.515Z" fill="#3F3D56"/>
<path d="M233.984 170.496L233.881 171.881L219.043 171.846L218.946 170.462L233.984 170.496Z" fill="#9D9CB5"/>
<path d="M233.839 172.458L233.737 173.844L219.179 173.81L219.083 172.424L233.839 172.458Z" fill="#9D9CB5"/>
<path d="M233.693 174.423L233.592 175.807L219.316 175.774L219.219 174.389L233.693 174.423Z" fill="#9D9CB5"/>
<path d="M217.273 155.917C223.776 160.011 226.48 166.396 226.48 166.396C226.48 166.396 218.632 166.145 212.126 162.051C205.621 157.957 202.923 151.574 202.923 151.574C202.923 151.574 210.768 151.824 217.273 155.917Z" fill="#2563EB"/>
<path d="M202.917 151.574C202.917 151.574 211.057 155.506 213.663 158.753C216.269 161.999 226.48 166.396 226.48 166.396" stroke="#535461" stroke-width="2" stroke-miterlimit="10"/>
<path d="M221.496 147.712C225.036 149.938 226.51 153.413 226.51 153.413C226.51 153.413 222.238 153.277 218.697 151.05C215.156 148.824 213.685 145.347 213.685 145.347C213.685 145.347 217.955 145.484 221.496 147.712Z" fill="#2563EB"/>
<path d="M213.685 145.347C213.685 145.347 218.115 147.488 219.532 149.254C220.95 151.02 226.51 153.413 226.51 153.413" stroke="#535461" stroke-width="2" stroke-miterlimit="10"/>
<path d="M231.657 153.249C227.575 157.113 226.702 162.173 226.702 162.173C226.702 162.173 232.447 160.967 236.525 157.101C240.603 153.236 241.48 148.178 241.48 148.178C241.48 148.178 235.738 149.386 231.657 153.249Z" fill="#2563EB"/>
<path d="M241.483 148.179C241.483 148.179 236.169 152.137 234.814 154.87C233.459 157.602 226.702 162.173 226.702 162.173" stroke="#535461" stroke-width="2" stroke-miterlimit="10"/>
<path d="M381.157 152.233C381.157 152.233 378.241 139.546 379.372 137.971C379.372 137.971 379.417 136.504 379.353 134.635C379.353 134.564 379.354 134.493 379.354 134.42C379.552 134.535 379.758 134.639 379.972 134.73C381.01 135.195 382.202 135.331 383.343 135.115L382.453 134.253C382.239 134.047 382.017 133.824 381.971 133.553C381.925 133.281 382.054 133.039 382.165 132.797C383.017 130.946 383.067 128.617 381.438 127.199C380.062 126.007 379.73 124.472 378.236 123.383C377.144 122.586 376.546 121.419 375.981 120.291C375.503 119.337 375.022 118.376 374.75 117.365C374.538 116.576 374.454 115.759 374.161 114.988C373.869 114.217 373.319 113.467 372.459 113.121C372.152 112.998 371.811 112.928 371.532 112.766C371.165 112.55 370.944 112.201 370.679 111.894C369.333 110.348 364.808 111.246 362.666 111.868C362.084 112.025 361.544 112.282 361.08 112.624L361.1 112.596C361.116 112.573 361.136 112.55 361.154 112.527C360.919 112.69 360.716 112.885 360.553 113.104C360.24 113.531 360.109 114.03 359.847 114.492C359.532 115.039 357.782 116.565 358.531 117.183C358.584 117.224 358.644 117.258 358.71 117.282C358.991 117.384 359.302 117.412 359.601 117.361L359.569 117.428C359.311 117.97 359.179 118.552 359.178 119.139C359.172 121.675 361.585 123.737 364.569 123.744C365.13 123.745 365.688 123.672 366.223 123.527C366.235 123.585 366.246 123.644 366.258 123.703C366.258 123.726 366.267 123.749 366.271 123.772L366.176 123.886C366.171 123.879 366.166 123.873 366.16 123.866L363.351 127.247C362.923 127.506 360.454 129.044 360.312 130.202C360.163 131.469 360.013 132.952 360.013 132.952L359.993 133.27C359.87 133.358 359.727 133.422 359.573 133.458C359.419 133.494 359.257 133.5 359.1 133.476C358.226 133.351 358.22 136.253 358.22 136.253C358.22 136.253 357.637 136.715 357.238 136.313C356.84 135.91 355.781 137.268 355.781 137.268L349.162 137.499L349.01 137.507L348.656 136.55C348.618 136.45 348.535 136.366 348.426 136.317C348.317 136.269 348.19 136.259 348.073 136.291C348.045 136.299 348.019 136.309 347.993 136.32L347.968 136.333L347.921 136.36L347.898 136.379C347.885 136.389 347.873 136.4 347.862 136.411L347.841 136.433L347.83 136.442C347.789 136.491 347.761 136.548 347.75 136.608C347.739 136.668 347.744 136.73 347.765 136.788L348.07 137.608C346.792 137.827 345.485 138.451 346.546 140.179L341.15 139.304L342.894 140.577L351.905 142.208C351.785 142.393 351.863 142.662 352.235 143.041C353.837 144.676 356.761 145.126 357.938 145.243C358.248 145.846 358.635 146.416 359.092 146.944L358.987 148.569C358.987 148.569 355.977 160.952 355.43 161.579C355.706 161.309 355.959 161.022 356.186 160.721C355.315 163.264 354.098 166.746 353.779 167.267C353.267 168.099 352.787 171.471 353.368 171.688C353.546 171.755 354.056 171.724 354.784 171.678L354.783 171.957L354.727 182.545C354.727 182.545 354.858 189.04 354.455 189.658C354.052 190.276 353.942 191.574 353.942 191.574C353.942 191.574 352.331 194.132 351.057 195.158C351.048 195.166 351.038 195.173 351.028 195.18L350.989 194.939C350.989 194.939 349.457 196.606 346.075 196.504C346.075 196.504 344.037 197.644 347.055 197.713C350.073 197.782 353.928 197.636 353.928 197.636C353.928 197.636 356.628 194.092 358.882 194.56L358.876 197.251L359.566 197.253L359.572 194.519C359.893 194.337 360.168 194.101 360.379 193.825C360.591 193.548 360.736 193.238 360.805 192.912C360.865 192.575 360.823 192.231 360.682 191.913C360.541 191.595 360.307 191.315 360.003 191.099C359.866 190.992 359.757 190.861 359.681 190.715C359.606 190.569 359.566 190.412 359.564 190.252L359.539 190.27C359.54 190.216 359.524 190.161 359.517 190.104C359.322 188.714 359.081 185.847 359.961 183.728C361.169 180.822 361.542 176.772 360.673 174.359C360.393 173.588 360.163 172.803 359.985 172.009C359.964 171.909 359.944 171.813 359.927 171.724C360.524 171.795 361.115 171.9 361.697 172.037C363.721 172.524 368.15 172.624 371.932 172.607C371.941 172.696 371.951 172.79 371.963 172.885C372.029 173.539 372.169 174.187 372.38 174.818C372.851 176.054 373.056 181.5 373.056 181.5C373.056 181.5 373.658 185.978 373.32 187.798C373.139 188.811 372.959 189.828 372.855 190.849L372.855 190.869C372.855 190.869 371.846 193.337 371.11 194.677C371.092 194.711 371.072 194.745 371.055 194.777C370.859 194.792 370.667 194.828 370.482 194.885C370.482 194.885 369.495 196.581 368.515 196.86C367.535 197.138 367.857 198.064 370.075 197.729C372.294 197.395 375.642 197.125 375.642 197.125L375.791 195.393L376.474 194.657L376.292 196.384L377.018 196.262L376.927 194.161L378.044 192.956C378.044 192.956 379.393 191.922 377.397 189.877L377.397 189.921C377.375 189.892 377.356 189.861 377.333 189.832L377.333 189.822C377.002 189.377 376.74 188.547 377.227 187.077C378.107 184.421 378.621 182.01 378.621 182.01C378.621 182.01 380.587 175.551 378.249 172.487L378.352 172.487C378.113 172.056 377.944 171.599 377.85 171.128C377.839 171.072 377.828 171.015 377.819 170.956C379.555 170.874 381.259 170.606 382.65 170.023C382.645 170.017 381.843 154.676 381.157 152.233ZM359.146 141.484L359.146 141.515L358.789 141.529L359.146 141.484ZM357.922 141.628C357.863 141.639 357.808 141.661 357.761 141.694C357.607 141.881 357.511 142.099 357.48 142.327L356.923 142.218C356.923 142.218 356.533 142.145 355.971 142.061L355.706 141.829C356.437 141.778 357.197 141.703 357.922 141.628Z" fill="url(#paint1_linear_1_169)"/>
<path d="M376.215 194.181L375.997 196.368L376.709 196.246L376.608 193.873L376.215 194.181Z" fill="#1D2366"/>
<path d="M360.001 183.757C359.138 185.87 359.374 188.725 359.563 190.112C359.633 190.624 359.698 190.936 359.698 190.936C359.698 190.936 358.41 193.462 358.303 193.557C358.196 193.653 354.523 195.582 354.523 195.582L351.957 196.871C351.957 196.871 349.358 195.878 350.606 195.542C350.861 195.454 351.091 195.319 351.28 195.146C352.531 194.123 354.105 191.575 354.105 191.575C354.105 191.575 354.215 190.28 354.609 189.665C355.002 189.05 354.875 182.577 354.875 182.577L354.929 172.025L354.933 170.65L359.811 170.692C359.841 171.159 359.91 171.624 360.019 172.082C360.192 172.873 360.417 173.655 360.693 174.424C361.547 176.832 361.181 180.862 360.001 183.757Z" fill="#FFB0B1"/>
<path opacity="0.1" d="M359.698 190.936C359.698 190.936 358.41 193.462 358.303 193.557C358.196 193.653 354.523 195.582 354.523 195.582L351.957 196.871C351.957 196.871 349.358 195.878 350.606 195.542C350.861 195.454 351.091 195.319 351.28 195.146L351.389 195.821L352.243 195.792L359.57 190.115C359.633 190.624 359.698 190.936 359.698 190.936Z" fill="black"/>
<path d="M359.611 190.258L352.243 195.975L351.388 196.003L351.212 194.922C351.212 194.922 349.714 196.583 346.392 196.483C346.392 196.483 344.395 197.619 347.351 197.688C350.307 197.756 354.082 197.61 354.082 197.61C354.082 197.61 356.726 194.066 358.932 194.534L358.926 197.216L359.604 197.217L359.61 194.511C359.925 194.328 360.195 194.092 360.402 193.817C360.61 193.541 360.75 193.232 360.816 192.909C360.875 192.575 360.835 192.234 360.698 191.918C360.561 191.602 360.332 191.321 360.033 191.104C359.9 190.995 359.794 190.864 359.721 190.719C359.649 190.573 359.611 190.417 359.611 190.258Z" fill="#1D2366"/>
<path d="M376.909 187.094C376.431 188.559 376.688 189.386 377.012 189.829L377.012 189.839C377.427 190.387 377.715 190.999 377.86 191.642L377.888 191.781L374.532 195.995L372.715 196.609C372.715 196.609 369.796 195.739 370.33 195.493C370.464 195.433 370.674 195.113 370.914 194.67C371.63 193.336 372.621 190.875 372.621 190.875L372.621 190.855C372.727 189.838 372.893 188.824 373.077 187.815C373.408 185.999 372.819 181.538 372.819 181.538C372.819 181.538 372.618 176.114 372.157 174.88C371.949 174.252 371.811 173.609 371.745 172.958C371.651 172.186 371.631 171.55 371.631 171.55C371.631 171.55 373.559 169.239 377.078 171.748C377.36 171.948 377.607 172.181 377.814 172.441C380.242 175.445 378.266 182.044 378.266 182.044C378.266 182.044 377.77 184.445 376.909 187.094Z" fill="#FFB0B1"/>
<path opacity="0.1" d="M377.894 191.781L374.537 195.995L372.72 196.609C372.72 196.609 369.802 195.739 370.336 195.493C370.47 195.433 370.679 195.113 370.919 194.67C372.155 194.664 372.793 195.684 372.793 195.684L374.36 195.472C374.36 195.472 376.434 191.963 376.898 191.749C377.363 191.536 376.973 190.146 376.973 190.146L376.974 189.792C376.987 189.805 376.997 189.818 377.012 189.831L377.012 189.84C377.427 190.388 377.715 191.001 377.86 191.644L377.894 191.781Z" fill="black"/>
<path d="M372.9 195.775C372.9 195.775 372.012 194.356 370.301 194.876C370.301 194.876 369.336 196.571 368.374 196.844C367.412 197.117 367.731 198.043 369.904 197.71C372.078 197.377 375.354 197.106 375.354 197.106L375.5 195.379L377.714 192.949C377.714 192.949 379.033 191.92 377.079 189.882L377.078 190.235C377.078 190.235 377.468 191.626 377.003 191.839C376.539 192.053 374.472 195.563 374.472 195.563L372.9 195.775Z" fill="#1D2366"/>
<path opacity="0.1" d="M359.817 170.689C359.846 171.156 359.916 171.621 360.024 172.079C358.016 171.82 356.152 171.942 354.929 172.022L354.933 170.647L359.817 170.689Z" fill="black"/>
<path opacity="0.1" d="M378.011 172.826C378.011 172.826 375.156 172.94 371.753 172.957C371.658 172.185 371.638 171.549 371.638 171.549C371.638 171.549 373.566 169.238 377.086 171.746C377.367 171.947 377.614 172.18 377.821 172.44C377.876 172.571 377.939 172.7 378.011 172.826Z" fill="black"/>
<path d="M378.011 172.548C378.011 172.548 365.509 173.043 361.701 172.109C357.893 171.176 354.114 171.968 353.546 171.752C352.977 171.536 353.447 168.177 353.948 167.346C354.45 166.515 357.209 158.107 357.209 158.107L359.873 146.217L362.652 145.561L362.849 145.514L367.691 144.37L371.239 143.531C371.239 143.531 378.236 167.371 377.627 169.127C377.406 169.799 377.369 170.506 377.519 171.193C377.61 171.662 377.776 172.118 378.011 172.548Z" fill="#1D2366"/>
<path d="M350.702 138.06C350.702 138.06 348.199 140.37 350.087 141.665C351.975 142.96 353.221 141.796 353.221 141.796L350.702 138.06Z" fill="#C7DAF5"/>
<path opacity="0.1" d="M350.702 138.06C350.702 138.06 348.199 140.37 350.087 141.665C351.975 142.96 353.221 141.796 353.221 141.796L350.702 138.06Z" fill="black"/>
<path d="M370.914 122.883C370.914 122.883 370.621 123.123 370.18 123.477C369.551 123.984 368.62 124.724 367.794 125.344C366.65 126.201 365.707 126.831 366.045 126.293C366.384 125.755 366.322 124.816 366.156 123.937C366.144 123.879 366.133 123.82 366.121 123.763C365.983 123.117 365.801 122.48 365.574 121.853C365.574 121.853 367.423 119.795 368.446 118.984C368.826 118.676 369.092 118.55 369.108 118.765C369.125 119.054 369.373 119.692 369.682 120.369C369.691 120.39 369.7 120.41 369.711 120.432C369.916 120.896 370.149 121.372 370.353 121.783C370.666 122.413 370.914 122.883 370.914 122.883Z" fill="#FFB0B1"/>
<path opacity="0.1" d="M369.711 120.432C369.535 121.238 369.113 121.989 368.488 122.606C367.862 123.222 367.057 123.682 366.156 123.937C366.016 123.232 365.821 122.536 365.574 121.853C365.574 121.853 369.056 117.979 369.108 118.765C369.12 119.063 369.389 119.724 369.711 120.432Z" fill="black"/>
<path opacity="0.1" d="M365.808 124.974L366.258 124.427C366.258 124.427 366.553 125.999 367.65 125.308C368.746 124.618 368.786 130.527 368.786 130.527L367.575 145.735L359.082 145.275L359.34 137.926L360.31 134.223L362.7 128.843L364.119 127.066L365.808 124.974Z" fill="black"/>
<path d="M368.786 130.621L367.684 144.372L367.568 145.829L362.833 145.572L362.654 145.563L359.087 145.369L359.345 138.019L360.315 134.316L362.705 128.935L364.124 127.159L365.813 125.059L366.264 124.513C366.264 124.513 366.558 126.085 367.655 125.395L367.678 125.381C368.75 124.797 368.786 130.621 368.786 130.621Z" fill="#1D2366"/>
<path d="M360.437 133.029C360.437 133.029 360.009 133.8 359.153 133.673C358.297 133.546 358.292 136.449 358.292 136.449C358.292 136.449 357.722 136.911 357.331 136.509C356.939 136.107 355.901 137.461 355.901 137.461L349.418 137.693C349.418 137.693 352.3 138.84 351.727 142.291C351.727 142.291 361.521 141.789 361.844 140.988C362.167 140.188 360.437 133.029 360.437 133.029Z" fill="white"/>
<path opacity="0.03" d="M360.437 133.029C360.437 133.029 360.009 133.8 359.153 133.673C358.297 133.546 358.292 136.449 358.292 136.449C358.292 136.449 357.722 136.911 357.331 136.509C356.939 136.107 355.901 137.461 355.901 137.461L349.418 137.693C349.418 137.693 352.3 138.84 351.727 142.291C351.727 142.291 361.521 141.789 361.844 140.988C362.167 140.188 360.437 133.029 360.437 133.029Z" fill="black"/>
<path d="M341.583 139.489L343.289 140.755L357.351 143.346L355.61 141.801L341.583 139.489Z" fill="white"/>
<path d="M365.833 125.46C365.599 125.768 364.926 127.347 364.365 128.726C363.896 129.875 363.505 130.885 363.505 130.885C363.505 130.885 362.585 135.999 362.119 136.923C361.654 137.846 361.897 141.453 361.897 141.453L360.147 150.355C360.147 150.355 359.354 154.945 358.138 157.686C356.938 160.383 355.606 161.646 355.565 161.686C356.102 161.06 359.047 148.727 359.047 148.727L360.046 133.165C360.046 133.165 360.191 131.687 360.336 130.423C360.482 129.159 363.376 127.44 363.376 127.44L366.17 124.018C366.449 124.342 366.261 124.907 365.833 125.46Z" fill="white"/>
<path d="M358.521 145.445C358.521 145.445 354.419 145.281 352.436 143.211C350.454 141.141 357.032 142.397 357.032 142.397L358.742 142.741L358.521 145.445Z" fill="#FFB0B1"/>
<path opacity="0.1" d="M377.627 169.128C377.406 169.8 377.369 170.508 377.519 171.195C373.042 171.459 368.257 170.402 368.257 170.402C367.363 171.11 365.011 172.151 365.011 172.151L363.763 158.409C362.948 156.554 362.649 146.849 362.649 146.849C362.649 146.849 362.724 146.341 362.831 145.58C362.831 145.561 362.831 145.541 362.84 145.523C363.164 143.398 363.807 139.409 364.118 138.871C364.548 138.131 362.808 136.156 362.808 136.156L363.615 130.299L363.713 129.592C365.388 128.949 366.675 126.887 366.675 126.887L367.664 125.396C368.735 124.805 368.777 130.629 368.777 130.629L367.675 144.379L371.223 143.54C371.223 143.54 378.236 167.373 377.627 169.128Z" fill="black"/>
<path d="M382.218 170.088C377.334 172.173 368.471 170.211 368.471 170.211C367.578 170.919 365.226 171.96 365.226 171.96L363.975 158.218C363.163 156.364 362.864 146.658 362.864 146.658C362.864 146.658 363.912 139.418 364.342 138.68C364.467 138.464 364.407 138.143 364.26 137.797C363.536 136.149 363.272 134.377 363.491 132.625L363.839 130.108L363.935 129.403C365.612 128.758 366.899 126.696 366.899 126.696L367.794 125.346L369.441 122.858L370.221 121.68L370.353 121.784L371.359 122.577C371.359 122.577 371.787 122.887 372.428 123.351C373.822 124.373 376.231 126.173 377.474 127.273C378.567 128.242 378.904 132.002 378.998 134.832C379.059 136.695 379.017 138.155 379.017 138.155C377.909 139.726 380.768 152.361 380.768 152.361C381.435 154.804 382.218 170.088 382.218 170.088Z" fill="white"/>
<path opacity="0.03" d="M372.953 126.679C372.953 126.679 369.592 132.187 369.976 134.284C370.36 136.382 371.461 138.757 370.926 139.31C370.742 139.519 370.505 139.689 370.233 139.806C369.961 139.923 369.661 139.984 369.357 139.984C368.821 140.013 367.392 140.873 367.392 140.966C367.392 141.058 366.074 141.055 364.893 141.485C363.713 141.914 361.972 142.156 361.972 142.156C361.972 142.156 358.583 142.055 358.266 142.332C357.95 142.609 357.621 144.271 358.294 145.599C358.967 146.926 359.716 147.918 360.283 148.1C360.85 148.282 364.452 147.246 367.373 147.006C370.293 146.766 373.468 144.771 373.468 144.771C373.468 144.771 376.961 143.699 377.578 141.883C378.194 140.068 376.857 130.078 376.857 130.078C376.857 130.078 375.841 125.422 372.953 126.679Z" fill="black"/>
<path opacity="0.03" d="M372.526 126.215C372.526 126.215 369.165 131.724 369.553 133.82C369.94 135.916 371.037 138.293 370.501 138.847C370.318 139.057 370.081 139.227 369.809 139.344C369.537 139.461 369.237 139.522 368.933 139.521C368.398 139.551 366.969 140.41 366.969 140.503C366.968 140.596 365.65 140.593 364.47 141.021C363.29 141.449 361.548 141.692 361.548 141.692C361.548 141.692 358.159 141.591 357.845 141.868C357.53 142.145 357.198 143.809 357.873 145.135C358.547 146.461 359.294 147.454 359.861 147.636C360.428 147.817 364.03 146.782 366.951 146.544C369.872 146.305 373.046 144.307 373.046 144.307C373.046 144.307 376.538 143.234 377.147 141.42C377.756 139.606 376.427 129.614 376.427 129.614C376.427 129.614 375.414 124.959 372.526 126.215Z" fill="black"/>
<path d="M372.849 126.401C372.849 126.401 369.488 131.91 369.875 134.006C370.263 136.102 371.36 138.479 370.825 139.032C370.642 139.242 370.405 139.412 370.133 139.53C369.86 139.647 369.56 139.708 369.256 139.707C368.72 139.737 367.291 140.596 367.291 140.688C367.291 140.779 365.974 140.777 364.792 141.207C363.611 141.636 361.871 141.878 361.871 141.878C361.871 141.878 358.482 141.777 358.165 142.054C357.849 142.331 357.52 143.995 358.193 145.321C358.866 146.647 359.615 147.64 360.182 147.822C360.749 148.003 364.351 146.968 367.272 146.728C370.192 146.488 373.367 144.493 373.367 144.493C373.367 144.493 376.86 143.42 377.477 141.605C378.093 139.789 376.765 129.8 376.765 129.8C376.765 129.8 375.734 125.151 372.849 126.401Z" fill="white"/>
<path opacity="0.1" d="M372.741 141.199C372.741 141.199 370.067 140.729 370.996 141.503C371.925 142.277 371.918 142.954 373.058 142.925C374.198 142.897 372.741 141.199 372.741 141.199Z" fill="black"/>
<path opacity="0.1" d="M377.225 157.816C377.225 157.816 376.014 158.522 378.324 160.161C380.634 161.799 377.225 157.816 377.225 157.816Z" fill="black"/>
<path opacity="0.1" d="M374.903 163.635C374.903 163.728 374.467 167.031 376.067 167.86C377.667 168.69 374.903 163.635 374.903 163.635Z" fill="black"/>
<path d="M349.529 137.686C348.237 137.721 345.447 138.056 346.888 140.395C348.162 142.465 350.315 141.088 351.527 140.043C351.234 139.065 350.519 138.221 349.529 137.686Z" fill="#FFB0B1"/>
<path opacity="0.1" d="M372.427 123.445C371.056 124.253 369.905 124.934 369.68 125.075C369.066 125.468 367.89 127.776 367.133 128.953C366.529 129.901 364.575 130.141 363.839 130.199L363.935 129.494C365.611 128.85 366.899 126.787 366.899 126.787L370.221 121.772L371.359 122.671C371.359 122.671 371.786 122.981 372.427 123.445Z" fill="black"/>
<path d="M372.428 123.353C371.056 124.16 369.905 124.841 369.68 124.984C369.066 125.375 367.89 127.683 367.133 128.861C366.53 129.809 364.576 130.048 363.839 130.107L363.935 129.401C365.612 128.757 366.899 126.694 366.899 126.694L370.221 121.679L371.359 122.575C371.359 122.575 371.787 122.882 372.428 123.353Z" fill="#DCE7FF"/>
<path d="M369.8 119.413C369.799 120.34 369.472 121.244 368.863 122.006C368.144 122.907 367.075 123.555 365.851 123.832C364.627 124.109 363.328 123.997 362.19 123.516C361.053 123.035 360.152 122.218 359.651 121.211C359.15 120.205 359.082 119.077 359.46 118.032C359.837 116.987 360.636 116.094 361.71 115.515C362.784 114.936 364.062 114.71 365.313 114.877C366.564 115.044 367.705 115.593 368.528 116.426C369.351 117.258 369.803 118.318 369.8 119.413Z" fill="#FFB0B1"/>
<path opacity="0.1" d="M378.998 134.833C378.274 134.446 377.686 133.896 377.294 133.242C376.998 132.732 376.801 132.144 376.293 131.781C375.836 131.456 375.224 131.376 374.654 131.229C372.778 130.745 371.208 129.259 371.153 127.567C371.126 126.771 371.416 125.976 371.287 125.187C371.214 124.741 371.01 124.318 370.694 123.959C370.537 123.787 370.365 123.626 370.18 123.477C369.93 123.273 369.669 123.075 369.441 122.858C369.297 122.724 369.172 122.576 369.067 122.417C368.983 122.287 368.914 122.15 368.863 122.008C368.509 121.062 368.836 119.942 368.446 118.986L368.424 118.933C368.277 118.593 367.976 118.253 367.557 118.226C367.138 118.198 366.779 118.499 366.379 118.632C365.542 118.911 364.64 118.43 363.944 117.941C363.247 117.452 362.462 116.892 361.575 116.998C360.988 117.07 360.524 117.414 359.983 117.592C359.86 117.633 359.734 117.664 359.606 117.685C360.066 116.699 360.908 115.883 361.988 115.376C363.068 114.869 364.319 114.704 365.525 114.909C366.732 115.113 367.818 115.675 368.598 116.497C369.378 117.32 369.803 118.351 369.8 119.415C369.8 119.736 369.761 120.056 369.682 120.37C369.691 120.392 369.7 120.412 369.711 120.434C369.916 120.897 370.149 121.373 370.353 121.784L371.359 122.577C371.359 122.577 371.787 122.887 372.428 123.351C373.822 124.373 376.231 126.173 377.474 127.273C378.567 128.245 378.901 132.003 378.998 134.833Z" fill="black"/>
<path d="M359.927 114.772C360.183 114.323 360.311 113.82 360.617 113.395C361.066 112.778 361.848 112.385 362.651 112.148C364.749 111.527 369.18 110.63 370.5 112.166C370.76 112.475 370.975 112.818 371.335 113.032C371.609 113.195 371.941 113.265 372.242 113.388C373.085 113.732 373.622 114.481 373.907 115.244C374.193 116.007 374.277 116.826 374.485 117.612C374.752 118.621 375.223 119.577 375.692 120.528C376.244 121.65 376.83 122.813 377.898 123.608C379.357 124.692 379.676 126.222 381.029 127.411C382.631 128.823 382.574 131.146 381.742 132.989C381.633 133.231 381.509 133.484 381.551 133.741C381.593 133.999 381.814 134.235 382.022 134.44L382.898 135.299C380.821 135.728 378.473 134.784 377.51 133.135C377.214 132.625 377.017 132.038 376.508 131.674C376.052 131.348 375.438 131.27 374.87 131.123C372.994 130.637 371.424 129.15 371.369 127.458C371.343 126.663 371.632 125.869 371.503 125.081C371.432 124.632 371.227 124.206 370.909 123.845C370.419 123.289 369.68 122.916 369.282 122.297C368.608 121.263 369.125 119.923 368.64 118.813C368.491 118.473 368.192 118.133 367.773 118.106C367.354 118.079 366.995 118.379 366.593 118.512C365.758 118.791 364.856 118.312 364.16 117.821C363.464 117.33 362.678 116.773 361.79 116.88C361.202 116.95 360.74 117.294 360.199 117.474C359.799 117.606 358.989 117.723 358.64 117.43C357.903 116.84 359.617 115.321 359.927 114.772Z" fill="#591D4B"/>
<path opacity="0.1" d="M378.008 132.626C377.709 132.116 377.514 131.529 377.005 131.167C376.549 130.842 375.935 130.761 375.365 130.615C373.491 130.131 371.921 128.643 371.865 126.951C371.838 126.156 372.127 125.36 372 124.573C371.927 124.126 371.722 123.703 371.406 123.344C370.915 122.789 370.175 122.415 369.779 121.797C369.105 120.764 369.622 119.424 369.136 118.313C368.988 117.974 368.688 117.634 368.27 117.605C367.853 117.576 367.49 117.88 367.09 118.013C366.255 118.292 365.351 117.811 364.657 117.322C363.962 116.833 363.173 116.274 362.287 116.38C361.7 116.451 361.235 116.795 360.696 116.973C360.296 117.105 359.484 117.224 359.135 116.931C358.401 116.312 360.116 114.795 360.424 114.25C360.68 113.799 360.808 113.298 361.116 112.873C361.132 112.849 361.15 112.826 361.167 112.803C360.938 112.967 360.739 113.162 360.579 113.379C360.273 113.805 360.145 114.304 359.889 114.756C359.579 115.302 357.865 116.823 358.6 117.438C358.957 117.732 359.76 117.613 360.159 117.481C360.695 117.302 361.163 116.957 361.75 116.888C362.642 116.78 363.426 117.339 364.121 117.829C364.815 118.318 365.724 118.799 366.556 118.52C366.956 118.386 367.306 118.085 367.734 118.113C368.162 118.142 368.447 118.481 368.601 118.821C369.086 119.93 368.569 121.271 369.242 122.305C369.641 122.913 370.38 123.294 370.869 123.852C371.188 124.213 371.393 124.639 371.464 125.089C371.592 125.876 371.303 126.671 371.33 127.466C371.385 129.164 372.955 130.645 374.83 131.131C375.395 131.277 376.013 131.356 376.468 131.681C376.98 132.045 377.18 132.632 377.471 133.142C378.434 134.792 380.781 135.736 382.859 135.307L382.446 134.901C380.646 134.92 378.827 134.03 378.008 132.626Z" fill="black"/>
<path opacity="0.1" d="M365.726 125.552C365.492 125.861 364.819 127.44 364.257 128.819C363.735 128.641 363.263 127.518 363.263 127.518L366.058 124.094C366.342 124.435 366.154 124.998 365.726 125.552Z" fill="black"/>
<path d="M365.833 125.46C365.599 125.768 364.926 127.347 364.365 128.726C363.842 128.551 363.371 127.426 363.371 127.426L366.165 124.004C366.449 124.342 366.261 124.907 365.833 125.46Z" fill="#DCE7FF"/>
<path d="M349.596 141.193L348.061 136.974C348.043 136.924 348.036 136.872 348.041 136.821C348.046 136.769 348.063 136.719 348.091 136.673C348.118 136.627 348.156 136.586 348.202 136.553C348.248 136.519 348.301 136.494 348.358 136.479C348.473 136.448 348.598 136.458 348.704 136.506C348.811 136.554 348.892 136.637 348.928 136.736L350.463 140.951L350.308 141.832L349.596 141.193Z" fill="#BE8B87"/>
<path opacity="0.1" d="M348.208 136.603C348.323 136.572 348.448 136.582 348.555 136.63C348.663 136.678 348.743 136.761 348.78 136.861L350.315 141.076L350.198 141.736L350.31 141.838L350.465 140.957L348.921 136.742C348.884 136.643 348.804 136.56 348.697 136.512C348.59 136.464 348.466 136.454 348.351 136.485C348.254 136.512 348.17 136.566 348.113 136.639C348.144 136.625 348.175 136.613 348.208 136.603Z" fill="white"/>
<path d="M349.596 141.193L350.463 140.957L350.335 141.679L350.308 141.838L350.055 141.609L349.596 141.193Z" fill="#EFC8C4"/>
<path d="M350.055 141.609C350.07 141.593 350.089 141.579 350.11 141.569C350.123 141.562 350.138 141.559 350.152 141.559C350.167 141.559 350.182 141.563 350.194 141.57C350.206 141.582 350.217 141.596 350.225 141.611C350.236 141.628 350.252 141.643 350.271 141.654C350.291 141.665 350.312 141.672 350.335 141.675L350.308 141.829L350.055 141.609Z" fill="#727A9C"/>
<path d="M348.048 138.471C348.048 138.471 351.147 138.463 350.415 139.602C349.682 140.741 348.542 140.876 348.542 140.876L348.048 138.471Z" fill="#FFB0B1"/>
<path d="M328.896 87.2295L328.762 87.2292C323.439 87.2168 318.726 89.6434 316.01 93.234C313.31 89.6309 308.608 87.1825 303.285 87.1701L303.152 87.1698C299.157 87.1935 295.335 88.5806 292.517 91.0296C289.7 93.4786 288.113 96.7916 288.103 100.249C288.093 104.542 290.252 110.638 294.477 115.66C302.527 125.23 315.916 133.617 315.916 133.617C315.916 133.617 329.345 125.294 337.437 115.76C341.687 110.757 343.872 104.671 343.882 100.378C343.888 96.9211 342.317 93.601 339.511 91.139C336.705 88.677 332.891 87.2721 328.896 87.2295ZM326.914 116.47C326.308 116.467 325.717 116.305 325.219 116.006C324.721 115.707 324.339 115.284 324.123 114.794L320.941 114.786C320.731 114.785 320.527 114.726 320.358 114.62C320.188 114.513 320.061 114.363 319.995 114.191L319.023 111.64L315.908 120.987C315.848 121.166 315.721 121.324 315.548 121.437C315.374 121.549 315.164 121.61 314.947 121.609L314.885 121.609C314.659 121.599 314.443 121.523 314.275 121.392C314.106 121.261 313.995 121.084 313.959 120.891L310.809 104.292L308.457 114.104C308.403 114.291 308.279 114.456 308.103 114.574C307.928 114.692 307.712 114.756 307.49 114.755L303.008 114.745C302.873 114.749 302.739 114.73 302.613 114.689C302.488 114.648 302.373 114.585 302.276 114.504C302.179 114.423 302.102 114.326 302.049 114.219C301.997 114.112 301.97 113.997 301.97 113.88C301.97 113.764 301.998 113.649 302.051 113.542C302.104 113.435 302.181 113.338 302.279 113.258C302.376 113.178 302.491 113.115 302.617 113.074C302.743 113.034 302.877 113.015 303.012 113.02L306.709 113.029L310.04 99.8365C310.095 99.6414 310.226 99.4689 310.411 99.3484C310.597 99.2279 310.825 99.1669 311.057 99.1758C311.288 99.1848 311.509 99.2631 311.682 99.3973C311.854 99.5316 311.967 99.7136 312.002 99.912L315.218 116.845L318.01 108.483C318.068 108.307 318.19 108.152 318.359 108.041C318.527 107.93 318.733 107.869 318.944 107.867L318.964 107.867C319.174 107.868 319.378 107.926 319.547 108.033C319.717 108.139 319.843 108.29 319.908 108.462L321.665 113.068L324.088 113.074C324.261 112.621 324.575 112.219 324.996 111.912C325.417 111.605 325.928 111.404 326.472 111.332C327.017 111.26 327.574 111.319 328.082 111.504C328.59 111.689 329.029 111.991 329.351 112.378C329.673 112.765 329.866 113.222 329.907 113.697C329.948 114.172 329.837 114.648 329.585 115.072C329.334 115.496 328.952 115.852 328.481 116.1C328.011 116.347 327.471 116.478 326.92 116.477L326.914 116.47Z" fill="white"/>
</g>
<defs>
<linearGradient id="paint0_linear_1_169" x1="266.287" y1="198.764" x2="266.507" y2="103.774" gradientUnits="userSpaceOnUse">
<stop stop-color="#808080" stop-opacity="0.25"/>
<stop offset="0.54" stop-color="#808080" stop-opacity="0.12"/>
<stop offset="1" stop-color="#808080" stop-opacity="0.1"/>
</linearGradient>
<linearGradient id="paint1_linear_1_169" x1="362.1" y1="197.785" x2="362.301" y2="111.029" gradientUnits="userSpaceOnUse">
<stop stop-color="#808080" stop-opacity="0.25"/>
<stop offset="0.54" stop-color="#808080" stop-opacity="0.12"/>
<stop offset="1" stop-color="#808080" stop-opacity="0.1"/>
</linearGradient>
<clipPath id="clip0_1_169">
<rect width="197.123" height="120.832" fill="white" transform="translate(203 79) rotate(0.132772)"/>
</clipPath>
</defs>
</svg>
